<?xml version="1.0" ?><svg style="enable-background:new 0 0 48 48;" version="1.1" viewBox="0 0 48 48" xml:space="preserve" xmlns="http://www.w3.org/2000/svg" xmlns:xlink="http://www.w3.org/1999/xlink"><g id="Icons"><g><path d="M20.56755,28.03552l-4.9909,1.4588c-2.7056,0.7908-4.839,2.6835-5.757,5.1075l-1.3379,3.5335    c0,0,14.8736,6.1342,31.0365,0.0283l-1.338-3.5335c-0.9179-2.424-3.0513-4.3168-5.757-5.1077l-4.9908-1.4587" style="fill:#1FAA22;"/><g><path d="M21.04675,26.76762l-0.2207,1.1352l-5.2541,1.5943c-2.6956,0.7928-4.8361,2.6841-5.7535,5.1078     l-1.3364,3.5336c0,0,14.8705,6.1272,31.0321,0.0227l-1.3364-3.5336c-0.9173-2.4237-3.0465-4.315-5.7534-5.1079l-5.3342-1.5649     l-0.1578-1.3745" style="fill:#1FAA22;"/></g><path d="M27.26775,28.19992c0,3.5985-6.5354,3.5635-6.5355-0.0303v-1.9322l6.5355,0.4397V28.19992z" style="fill:#DDBEA8;"/><path d="M29.58665,24.71092c0,0,2.5989,0.2909,3.1883-2.24c0,0,2.3922-1.5068,1.7681-5.9222    c0,0,3.0164-4.9295-2.3922-8.7085c0,0-0.832-0.9015-2.4615,0.2773c0,0-2.0995-1.7338-4.8807-0.6068l-0.6576,0.3684l-0.7522-0.3684    c-2.7814-1.127-4.8808,0.6068-4.8808,0.6068c-1.6294-1.1788-2.4615-0.2773-2.4615-0.2773    c-5.4086,3.779-2.3899,8.8909-2.3899,8.8909c-0.624,4.4152,1.7658,5.7398,1.7658,5.7398c0.5894,2.5309,3.1882,2.24,3.1882,2.24" style="fill:#FFC601;"/><path d="M30.07595,22.72802c-0.7676,3.0174-3.2455,5.2268-6.1837,5.2268    c-2.8852,0-5.322-2.3141-6.136-5.2478c-0.8304,0.1554-1.0403-0.9495-1.2827-2.0021c-0.2424-1.0526-0.4256-2.0567,0.4047-2.212    h0.1309l1.0674,0.4096c0,0-0.5519-2.2779,0.4268-2.8264l-0.2581-1.5165l5.9058-0.5045l5.5666,0.5045l-0.2582,1.5165    c0.9788,0.5485,0.4268,2.8264,0.4268,2.8264l1.0768-0.3733c0.8304,0.1554,0.6379,1.1231,0.3955,2.1757    c-0.2424,1.0526-0.4523,2.1575-1.2826,2.0021" style="fill:#F9D9C0;"/></g></g></svg>