<?xml version="1.0" ?><svg style="enable-background:new 0 0 64 64;" version="1.1" viewBox="0 0 64 64" xml:space="preserve" xmlns="http://www.w3.org/2000/svg" xmlns:xlink="http://www.w3.org/1999/xlink"><style type="text/css">
	.st0{fill:#0072FF;}
</style><g id="GUIDES_64"/><g id="Layer_3"/><g id="Layer_2"><circle class="st0" cx="52.1" cy="32.4" r="7.9"/><circle class="st0" cx="31.1" cy="36.3" r="7.9"/><circle class="st0" cx="11" cy="40.2" r="7"/><path class="st0" d="M11,49c-3,0-5.5,1.9-6.5,4.5C4,54.7,4.9,56,6.2,56h9.6c1.3,0,2.2-1.3,1.8-2.5C16.5,50.9,14,49,11,49z"/><path class="st0" d="M25.2,56h11.9c1.1,0,1.9-0.9,1.9-1.9v-0.3c0-4.7-4.1-8.4-8.9-7.8c-4,0.5-6.8,4.1-6.8,8.1   C23.2,55.1,24.1,56,25.2,56z"/><path class="st0" d="M51.1,42.1c-4,0.5-6.8,4.1-6.8,8.1v3c0,1.6,1.3,2.9,2.9,2.9h10c1.6,0,2.9-1.3,2.9-2.9v-3.3   C60,45.2,55.9,41.4,51.1,42.1z"/></g></svg>