<svg xmlns="http://www.w3.org/2000/svg" viewBox="0 0 24 24"><circle cx="12" cy="12" r="6.96" fill="#fdd43c"/><path fill="#65360f" d="M17,7H15a1,1,0,0,0,0,2h2a.94.94,0,0,1,1,.86v9.28A.94.94,0,0,1,17,20H7a.94.94,0,0,1-1-.86V9.86A.94.94,0,0,1,7,9H9A1,1,0,0,0,9,7H7A2.94,2.94,0,0,0,4,9.86v9.28A2.94,2.94,0,0,0,7,22H17a2.94,2.94,0,0,0,3-2.86V9.86A2.94,2.94,0,0,0,17,7Z"/><path fill="#84c43b" d="M10,5.81l1-1V13a1,1,0,0,0,2,0V4.82l1,1a1,1,0,0,0,.71.29,1,1,0,0,0,.71-.29,1,1,0,0,0,0-1.41L12.7,1.7a1,1,0,0,0-1.41,0L8.59,4.4A1,1,0,0,0,10,5.81Z"/></svg>