<svg xmlns="http://www.w3.org/2000/svg" data-name="Layer 1" viewBox="0 0 48 48"><rect width="38" height="30" x="5" y="9" fill="#f9e109" rx="2" ry="2"/><path fill="#fbbc04" d="M4 37a1 1 0 0 1-.61-1.79l15.43-12A1 1 0 1 1 20 24.79l-15.43 12A1 1 0 0 1 4 37zM44 37a1 1 0 0 1-.61-.21L28 24.79a1 1 0 1 1 1.22-1.58l15.43 12A1 1 0 0 1 44 37z"/><path fill="#192835" d="M41,7H7a4,4,0,0,0-4,4V37a4,4,0,0,0,4,4H41a4,4,0,0,0,4-4V11A4,4,0,0,0,41,7Zm2,30a2,2,0,0,1-2,2H7a2,2,0,0,1-2-2V11A2,2,0,0,1,7,9H41a2,2,0,0,1,2,2Z"/><path fill="#192835" d="M24,27a6.84,6.84,0,0,1-4.19-1.44L3.39,12.79a1,1,0,0,1,1.22-1.58L21,24A5,5,0,0,0,27,24L43.39,11.21a1,1,0,1,1,1.22,1.58L28.19,25.56A6.84,6.84,0,0,1,24,27Z"/></svg>