<?xml version="1.0" encoding="UTF-8"?>
<svg id="Layer_50" data-name="Layer 50" xmlns="http://www.w3.org/2000/svg" xmlns:xlink="http://www.w3.org/1999/xlink" viewBox="0 0 646.32 750">
  <defs>
    <style>
      .cls-1 {
        fill: #f2fcff;
      }

      .cls-2 {
        fill: #fafeff;
      }

      .cls-3 {
        fill: #f6fdff;
      }

      .cls-4 {
        fill: #90e2ff;
      }

      .cls-5 {
        fill: #167ec6;
      }

      .cls-6 {
        fill: #ebfaff;
      }

      .cls-7 {
        fill: #0053a5;
      }

      .cls-8 {
        fill: #5fd6ff;
      }

      .cls-9 {
        fill: #94e3ff;
      }

      .cls-10 {
        fill: #333;
      }

      .cls-11 {
        fill: #e7f9ff;
      }

      .cls-12 {
        fill: url(#radial-gradient);
      }

      .cls-13 {
        fill: #42210b;
      }

      .cls-14 {
        fill: #baedff;
      }

      .cls-15 {
        fill: #d9f5ff;
      }

      .cls-16 {
        fill: #0071bc;
      }

      .cls-17 {
        fill: #e3f8ff;
      }

      .cls-18 {
        fill: #d4f4ff;
      }

      .cls-19 {
        fill: #f9fdff;
      }

      .cls-20 {
        fill: #eefbff;
      }

      .cls-21 {
        fill: #d6f4ff;
      }

      .cls-22 {
        fill: #f9feff;
      }

      .cls-23 {
        fill: url(#linear-gradient);
      }

      .cls-24 {
        fill: #29abe2;
      }

      .cls-25 {
        fill: #754c24;
      }
    </style>
    <radialGradient id="radial-gradient" cx="263.95" cy="677.75" fx="263.95" fy="677.75" r="134.28" gradientUnits="userSpaceOnUse">
      <stop offset="0" stop-color="#fdfeff"/>
      <stop offset=".64" stop-color="#8de1ff"/>
    </radialGradient>
    <linearGradient id="linear-gradient" x1="307.1" y1="592.54" x2="499.82" y2="295.75" gradientUnits="userSpaceOnUse">
      <stop offset="0" stop-color="#8de1ff"/>
      <stop offset="1" stop-color="#fdfeff"/>
    </linearGradient>
  </defs>
  <path d="M151.02,253.89s-30.84-126.43,60.13-196.96c0,0,104.84-79.02,219.32-15.8,0,0,107.76,68.82,103.3,130.28l-4,65.53-187.39,56.93-188.06-18.3-3.3-21.67Z"/>
  <path class="cls-13" d="M200.16,113.2l8.09-2.23,1.54-5.67s-16-19.27-1.54-29.49l17.73-1.45,4.63,5.97s10.19-12.07,10.35-13.2,10.04-21.08,10.04-21.08l24.13,7.79,32.96-25.25s19.66-3.85,23.13,6.36c3.47,10.21,3.34,16.22,3.34,16.22l12.47-14.87,10.41-9.44s19.24-4.62,22.93,7.52-.96,21.63-.96,21.63l36.81-5.44s31.99,4.05,17.34,28.72c0,0-2.31,6.35,28.72,1.05,0,0,24.86-2.6,22.55,8.97l2.44,11.95-11.3,12.91s15.53,14.07,24.92,15.42,20.37,10,20.37,10v11.97l-6.74,11.18,9.05,5.78,3.67,10.19-6.36,11.58-1.54,9.22,11.18,20.46-8.87,10.02-59.94,9.38-75.8,5.26h-119.75l-79.26,3.05-15.94,.99s-18.2-24.8-2.47-38.93c0,0-11.49-26.44-.4-36.35,0,0-16.71-12.24-3.94-28.41l11.76-2.04,1.96-2.53s-12.58-24.75,9.03-29.46"/>
  <path class="cls-24" d="M306.93,218.62c-23.51,19.66-61.09,6.75-61.09,6.75-16.77,18.5-43.56,4.82-43.56,4.82-3.47,15.22-31.8,12.53-31.8,12.53l-4.69,15.16,152.37,12.59,200.18-19.61,4.24-30.31-21.71,1.16-32.45,10.04c-12.72,4.26-14.01-4.26-14.01-4.26-9.19,9.83-25.75,0-25.75,0,1.48,8.29-17.67,13.49-17.67,13.49l-17.15-7.13c-23.13,.58-27.75-19.66-27.75-19.66h-11.18s7.45,16.83-6.17,22.48c0,0-8.22,4.37-11.43,.26,0,0,1.23,12.72,18.12,10.92,0,0-20.99-3.34-29.34-9.89s-4.32-12.72-4.32-12.72l-1.54-3.34s-9.51,.64-13.3-3.28Z"/>
  <path class="cls-19" d="M186.09,259.55s17.73-8.1,18.5-16.71c0,0,12.85,11.69,32.25,1.8,0,0,15.29,16.19,37.26,3.85,0,0,19.91,16.83,43.04-2.44,0,0,18.89,12.85,26.34,12.72,0,0,16.45-2.44,24.67-14.13,0,0,7.07,4.11,17.73,0l24.41,11.43h17.09s8.35-11.04,8.22-16.69c0,0,6.16,3.86,12.85,0,0,0,4.84,7.81,10.54,7.32l2.7,7.21-119.1,22.34-143.38-.68-13.11-16.01Z"/>
  <g>
    <path class="cls-24" d="M321.14,660.37c-6.3-1.91-13.17-7.02-18.66-11.89l5.9,9.87-5.63-2.81c-3.99-1.99-9.33-7.78-13.51-12.83l3.73,11.27-3.86-1.79c-6.43-2.98-15.91-10.77-22.53-16.59l6.24,12.04-5.04-2.5c-13.31-6.6-26.13-20.02-34.5-30.05l8.97,19.95-5.69-4.24c-7.98-5.94-16.1-17.24-21.93-26.47l3.67,11.76-4.12-2.43c-11.61-6.86-20.87-22.73-25.66-32.31v10.85l-3.27-4.02c-6.66-8.18-11.38-22.79-13.49-30.28l-4.94,9.53-1.68-2.91c-7.32-12.68-9.57-31.23-10.26-41.04l-3.97,7.21-1.06-4.76c-3.97-17.88-1.37-34.01,.4-41.64l-8.35,5.23,.76-4.12c3.22-17.4,14.26-31.35,14.73-31.94l.05-.07,5.18-5.37,16.92-52.89,249.94-140.77,62.03-17.75-12.99,35.28-9.19,120.03c25.53,67.15,22.27,96.48,22.12,97.7l-.68,5.51-6.86-12.07c4.6,28.43-.02,43.57-.24,44.27l-1.8,5.69-5.4-17.96c-3.38,31.91-15.52,53.1-16.09,54.07l-3.43,5.9v-14.01c-14.49,32.68-31.94,49.4-32.74,50.15l-4.26,4.02,2.83-13.66c-24.68,30.37-60.9,50.93-61.28,51.14l-7.22,4.06,4.82-6.73c3.88-5.42,5.43-11.4,6.03-15.92-9.93,15.58-20.56,20.18-20.68,20.23l-8.02,3.36,5.97-6.32c3.65-3.86,6.27-9.01,8.05-13.49-11.7,13.26-27.11,21.92-27.88,22.35l-.68,.38-.75-.23Z"/>
    <path d="M488.54,239.38l-5.35,14.53-.97,2.62-5.51,14.96-.1,1.3-9.14,119.4c25.82,67.77,22.16,97.21,22.16,97.21l-9.64-16.96c7.9,35.46,1.92,54.34,1.92,54.34l-6.55-21.78c-1.55,37.39-16.57,63.21-16.57,63.21v-16.38c-15.04,38.36-35.85,58.01-35.85,58.01l3.28-15.8c-24.48,33.92-65.62,57.04-65.62,57.04,7.99-11.17,6.65-24.37,6.65-24.37-10.34,20.01-23.11,25.75-23.51,25.91,8.47-8.96,11.56-24.18,11.56-24.18-11.27,17.73-33.63,30.16-33.63,30.16-12.51-3.79-27.94-21.41-28.42-21.96l10.3,17.24c-7.14-3.56-19.47-20.82-19.47-20.82l5.77,17.45c-10.4-4.82-29.68-23.22-29.68-23.22l8.39,16.19c-22.16-10.98-43.46-42.02-43.46-42.02l12.52,27.84c-14.13-10.52-29.2-39.17-29.67-40.06l7.13,22.82c-16.48-9.73-28.43-39.12-28.43-39.12v14.07c-8.86-10.88-14.35-34.21-14.35-34.21l-5.59,10.79c-10.02-17.35-10.31-46.73-10.31-46.73l-4.77,8.66c-5.35-24.09,1.59-45.28,1.59-45.28l-8.77,5.49c3.18-17.14,14.35-31.12,14.35-31.12l5.42-5.62,16.83-52.61,244.57-137.74,4.56-2.57,58.33-16.69m5.96-5.54l-6.98,2-58.33,16.69-.42,.12-.38,.21-4.56,2.57-244.57,137.74-1.26,.71-.44,1.38-16.57,51.8-4.83,5-.12,.12-.11,.13c-.48,.6-11.79,14.9-15.1,32.75l-1.53,8.24,7.1-4.45,1.15-.72c-1.59,8.73-2.94,22.84,.47,38.19l2.12,9.53,3.42-6.21c1.14,10.42,3.78,25.11,9.95,35.79l3.37,5.83,3.09-5.98,1.29-2.5c2.52,8.05,6.82,19.54,12.52,26.54l6.54,8.04v-8.67c5.31,9.38,13.3,20.88,22.88,26.53l8.24,4.87-1.39-4.45c4.72,6.44,10.06,12.66,15.36,16.61l11.38,8.47-5.82-12.94-1.13-2.51c7.73,8.16,17.26,16.63,27.07,21.49l10.08,5-4.54-8.76c5.43,4.42,11.33,8.75,15.83,10.83l7.72,3.58-2.27-6.85c2.81,2.88,5.68,5.36,8.14,6.59l11.27,5.63-3.95-6.61c3.72,2.61,7.63,4.81,11.37,5.94l1.49,.45,1.36-.76c.6-.33,9.85-5.53,19.5-13.97-.6,.78-1.23,1.54-1.89,2.24l-11.96,12.65,16.06-6.72c.41-.17,7.58-3.27,15.69-12.93-.82,1.96-1.88,3.95-3.25,5.85l-9.64,13.47,14.44-8.11c1.5-.84,32.79-18.61,57.11-46.04l-.17,.84-2.38,11.46,8.51-8.04c.74-.7,15.82-15.14,29.63-43.21v12.55l6.87-11.8c.52-.9,10.76-18.76,15.19-46.29l1.22,4.06,3.44,11.43,3.6-11.38c.2-.64,3.93-12.87,1.56-35.7l4.93,8.68,1.37-11.02c.15-1.23,3.45-30.9-22.08-98.2l9.08-118.58,.06-.79,5.33-14.48,.97-2.62,5.35-14.53,2.51-6.81h0Z"/>
  </g>
  <polygon class="cls-7" points="483.19 253.91 482.22 256.53 476.72 271.49 476.61 272.79 448.2 288.58 426.99 294.94 425.65 270.46 445.88 259.28 483.19 253.91"/>
  <polygon class="cls-16" points="488.54 239.38 483.19 253.91 482.22 256.53 425.65 270.46 425.65 258.64 430.21 256.07 488.54 239.38"/>
  <path class="cls-24" d="M521.04,733.36h-4.6l-438.71,.03h-4.78c.09-.5,.26-1.19,.5-2.04,0-.02,.02-.04,.02-.06,2-7.04,9.16-25.4,24.23-45.3l-14.39,5.65s20.29-29.04,54.22-48.57h-13.1s22.26-19.3,57.49-34.74c7.59-3.31,15.77-6.46,24.47-9.2,49.08-15.41,118.12,14.39,118.12,14.39,0,0,82.85-17.79,117.73-3.57,2.5,1.02,4.76,2.2,6.72,3.57,0,0,39.12,23.32,49.92,49.14l-19.27-9.82s27.37,27.95,35.46,49.53l-10.02-8.09s14.82,22.65,15.93,37.67c.04,.48,.06,.96,.06,1.43Z"/>
  <path class="cls-12" d="M429.26,733.38H171.82c.29-14.77,5.3-34.58,25.45-51.66l-12.73,5.02s8.5-23.13,18.14-28.14l-9.64,2.7s12.31-39.08,58.2-48.18c45.88-9.1,132.59,18.12,132.59,18.12,0,0,29.29,36.23,31.22,50.11l2.31-8.1s15.75,47.19,11.9,60.14Z"/>
  <path class="cls-5" d="M442.24,609.94c-10.17,15.64-35.67,25.16-35.67,25.16v-6.17c-24.16,31.87-72.59,42.4-72.59,42.4l4.24-9.37-15.93,6.16-5.15-3.6v2.19l-16.3-6.04v2.57c-3.91,.76-17.7-7.21-18.11-7.44l1.4,2.82c-10.15-1.55-23.51-13.23-23.51-13.23v3.41c-9.77-.45-37.01-19.09-37.01-19.09v3.6c-5.87,1.17-30.33-16.48-41.69-24.98,7.59-3.31,15.77-6.46,24.47-9.2,49.08-15.41,118.12,14.39,118.12,14.39,0,0,82.85-17.79,117.73-3.57Z"/>
  <path d="M521.04,733.36h-4.6c-.21-14.18-13.27-37.73-13.4-37.97l-5.81-10.4,11.5,9.29c-10.52-19.04-30.53-39.6-30.77-39.84l-9.83-10.05,25.5,12.99c-13.34-22.33-45.49-41.68-45.84-41.9l-.14-.09c-28.13-19.63-121.71,.16-122.65,.36l-.73,.16-.67-.29c-.68-.29-68.84-29.28-116.52-14.31-37.12,11.67-65.1,31.08-76.08,39.45h15.14l-7.46,4.3c-23.41,13.47-40.38,31.73-48.36,41.35l14.16-5.57-4.94,6.53c-16.28,21.49-20.88,41.28-21.8,46.02h-4.67c0-.12,.04-.25,.06-.41,.07-.39,.17-.94,.32-1.64,0-.02,.02-.04,.02-.06,1.28-5.91,5.64-22.08,17.86-40.32l-14.27,5.6,4.36-6.24c.78-1.12,18.21-25.77,47.92-44.95h-11.09l4.66-4.04c.33-.29,33.82-29,82.79-44.39,47.29-14.85,111.31,10.94,119.04,14.18,9.51-1.99,96.66-19.51,125.47,.47,2.42,1.45,39.95,24.27,50.79,50.19l2.41,5.78-13.53-6.9c8.85,10.15,22.01,26.71,27.33,40.89l2.96,7.91-8.27-6.68c3.78,8.15,8.5,19.93,9.06,29.16,.04,.48,.06,.96,.06,1.43Z"/>
  <path class="cls-23" d="M264.74,500.96s-2.13,56.08,6.92,76.9l3.47-13.49s7.13,25.25,10.99,28.14c0,0-2.89-21.91,0-24.6,0,0,4.82,21.46,9.96,24.6l-3.73-23.7s12.08,20.69,18.24,23.7l-1.03-16.64s4.33,9.89,15.2,16.64l-3.38-16.12s13.11,20.94,12.85,27.49c0,0,2.31-22.87,.64-27.49,0,0,7.19,14.52,7.58,22.87,0,0,5.27-15.03,4.11-26.34,0,0,9.89,10.41,9.89,21.97,0,0,7.45-23.51,3.21-31.99,0,0,7.97,17.09,7.32,35.85,0,0,12.08-15.8,8.48-43.43,0,0,8.48,17.73,5.4,40.86,0,0,17.34-30.32,14.13-55.38,0,0,2.96,16.57,2.96,44.97,0,0,16.7-24.8,15.16-52.29,0,0,8.35,20.69,6.55,42.53,0,0,15.8-32.44,10.79-65.78,0,0,7.71,1.93,9.83,21.39,0,0,3.08-27.94,0-50.69,0,0,6.17,23.13,6.94,28.14,0,0,10.34-39.7,0-66.42l10.34,26.72s-5.27-36.75-15.03-54.48c0,0-4.5-76,15.03-88.04l8.74-56.37-38.26,19.01-85.47,104.9,34.69,68.04,30.06-.39,.29,6.92,6.14-4.35,14.29-14.23s-12.37,23.87-31.51,41.47c0,0-26.6,31.86-88.84,20.11l-42.96-10.99Z"/>
  <path class="cls-4" d="M248.34,502.79s-6.62,51.1,.45,71.79c0,0-9.89-9.64-12.46-29.04,0,0-7.84,15.8-7.45,25.44,0,0-9.76-14.26-6.3-27.75,0,0-4.63,2.96-8.09,11.69,0,0-4.5-11.31-2.83-20.94,0,0-7.58,2.31-10.79,10.79,0,0-2.96-9.89,2.06-17.22,0,0-6.81,1.54-15.03,6.17,0,0,9.89-12.85,20.3-16.19l-24.8-1.67s7.45-4.11,14.39-3.98c0,0-16.99-3.57-19.91-20.81,0,0,11.56,13.36,27.24,13.75l43.23-2.02Z"/>
  <path d="M183.98,391.3l-1.61,.45h-5.24s-30.27,27.69-17.5,66.23c0,0,12,33.15,55.17,32.57,0,0,22.55-.67,49.34-9.15,0,0,44.4,24.38,97.55,12.12,0,0,38.71-7.4,66.36-43.15,0,0-10.99,12.24-19.18,15.71l-85.57,12.23-74.69-13.01-46.15-30.86-18.5-43.13Z"/>
  <path class="cls-8" d="M183.65,384.3l-1.28,7.45s-29.55,25.7-21.71,56.15c0,0,5.91,35.08,43.17,38.42,0,0,33.92,2.7,57.82-7.84l3.73-.26s38.42,18.63,81.33,14.78c0,0,48.05-6.17,68.35-31.61,0,0,10.79-20.17-.9-39.83,0,0-24.41-28.65-62.96-31.61l-33.03-42.01-33.78-81.52-24.48,5.01-20.62,51.84-26.02,40.86-29.61,20.17Z"/>
  <path class="cls-14" d="M285.35,289.93s-23.32-6.7-26.6,31.34c0,0-8.54,36.11,30.71,51.53,0,0-5.21,46.45-17.77,67.07,0,0-10.05,21.78,14.23,37.77,0,0,28.1,14.42,68.61,7.13,0,0,41.63-6.17,45.87-31.99,0,0-2.19-35.65-38.71-52.81,0,0-17.97-10.02-32.8-10.21,0,0-11.58-2.37-16.74-11.37-5.16-9-26.81-88.46-26.81-88.46Z"/>
  <path class="cls-14" d="M218.09,395.16s-2.1-14.45-20.9,3.47c0,0-30.17,28.83-11.05,61.92,2.03,3.51,5.12,6.27,8.8,7.96,11.66,5.35,39.52,15.79,52.44,.47,0,0,7.32-18.31,5.4-42.98,0,0-24.37-7.1-34.69-30.84Z"/>
  <path d="M264.05,366.79s-39.6-3.46-43.07,22.86c0,0-2.41,20.06,28.43,40.68,0,0,16.77,12.43,37.2-5.97,0,0,27.56-21.2,20.91-36.81,0,0-3.76-20.33-43.46-20.76Z"/>
  <path class="cls-10" d="M274.36,428.82s19.3-10.05,28.74-28.18c.52-1,.39-2.22-.31-3.11-1.7-2.19-5.39-5.34-10.54-.91-1.01,.87-1.79,1.97-2.32,3.18-2.44,5.61-10.95,24.7-15.58,29.02Z"/>
  <path class="cls-10" d="M226.66,398.48c.63-1.89,2.18-4.62,5.94-6.03,1.51-.57,3.26-.16,4.27,1.1,.72,.88,1.54,2.24,2.36,4.31,0,0,8.64,28.28,13.86,30.21,0,0-14.61-4.26-26.17-26.18-.55-1.05-.64-2.28-.27-3.41Z"/>
  <path d="M262.39,480.55c-10.43-21.82-2.03-47.91-1.67-49.02l2.62,.86c-.08,.26-8.4,26.15,1.54,46.96l-2.49,1.19Z"/>
  <g>
    <path class="cls-16" d="M180.95,390.07c-.5-.04-12.45-1.03-26.28-7.79-12.8-6.26-29.58-18.84-36.85-43.24-.13-.47-12.05-44.72,2.52-89.7l.42-1.29,1.35,.15s5.02,.57,13.28,1.41c25.58,2.61,90.21,8.67,137.77,8.67,.79,0,1.57,0,2.35,0,.25,0,20.89,.42,47.29,.42h0c30.16,0,71.46-.55,96.88-3.19,3.09-.31,6.02-.67,8.73-1.08l1.9-.28v87.65l-.03,.15c-.07,.36-1.81,8.94-11.29,18.88-8.61,9.03-25.6,20.98-57.64,26.63-.21,.03-4.35,.66-10.76,.66-14.05,0-40.01-3.12-56.03-24-3.63-4.72-6.59-10.2-8.81-16.27l-.06-.16-.02-.17c-.03-.23-3.38-22.93-2.11-44.08,.34-5.74-1.6-11.31-5.32-15.27-3.07-3.27-6.36-4.92-9.76-4.92-2.19,0-4.49,.69-6.84,2.06-4.51,2.63-7.89,7.23-9.26,12.61l-14.63,57.56-.03,.08c-.24,.64-2.78,6.4-18.78,12.26-1.43,.65-29.41,13.46-36.65,21.66l-.55,.62-.82-.06Z"/>
    <path d="M121.92,249.85s4.94,.56,13.3,1.41c27.2,2.77,90.63,8.68,137.95,8.68,.79,0,1.57,0,2.35,0,0,0,20.56,.42,47.28,.42,31.65,0,71.96-.6,97.07-3.2,3.2-.32,6.15-.69,8.8-1.09v85.57s-6.43,33.41-67.59,44.2c0,0-4.12,.64-10.47,.64-14.1,0-39.21-3.14-54.71-23.35-3.39-4.41-6.31-9.64-8.56-15.83,0,0-3.37-22.51-2.1-43.74,.36-6.06-1.61-12.08-5.76-16.5-2.79-2.96-6.47-5.44-10.97-5.44-2.34,0-4.9,.67-7.68,2.29-5.06,2.95-8.58,7.96-10.03,13.64l-14.6,57.48s-2.05,5.52-17.85,11.31c0,0-29.55,13.36-37.26,22.1,0,0-47.92-3.73-61.66-49.85,0,0-12.08-43.69,2.5-88.72m-2.32-3.6l-.84,2.58c-7.7,23.77-7.99,47.11-6.87,62.5,1.21,16.69,4.2,27.66,4.33,28.12v.03s.02,.03,.02,.03c7.44,24.98,24.61,37.85,37.71,44.25,14.1,6.9,26.36,7.92,26.88,7.96l1.65,.13,1.09-1.24c5.92-6.7,27.91-17.54,36.03-21.22,16.3-5.99,19.27-12.06,19.71-13.22l.06-.17,.04-.17,14.6-57.48c1.26-4.96,4.35-9.18,8.48-11.59,2.09-1.22,4.11-1.84,6.01-1.84,2.93,0,5.81,1.48,8.56,4.4,3.41,3.63,5.18,8.74,4.87,14.03-1.28,21.32,1.99,43.49,2.13,44.42l.05,.33,.11,.31c2.27,6.23,5.32,11.85,9.05,16.71,16.45,21.45,42.99,24.65,57.34,24.65,6.53,0,10.8-.65,10.97-.68h.03s.03-.01,.03-.01c26.07-4.6,45.77-13.73,58.55-27.12,9.81-10.29,11.64-19.33,11.71-19.71l.06-.31v-89.73l-3.8,.57c-2.67,.4-5.58,.76-8.65,1.07-25.37,2.63-66.61,3.18-96.73,3.18-26.38,0-47.01-.42-47.22-.42h-.04s-.04,0-.04,0c-.78,0-1.55,0-2.34,0-47.48,0-112.05-6.06-137.61-8.66-8.24-.84-13.21-1.4-13.26-1.4l-2.69-.31h0Z"/>
  </g>
  <path class="cls-9" d="M236.84,282.93c-.25,3.63-.55,7.28-.91,10.93l-88.25,51c-2.24-4.45-3.96-8.89-5.25-13.29l86.38-49.51,8.03,.87Z"/>
  <path class="cls-15" d="M235.93,293.86c-.55,5.59-1.23,11.16-2.03,16.58l-79,46.2c-2.86-3.89-5.25-7.84-7.22-11.79l88.25-51Z"/>
  <path class="cls-18" d="M232.46,319.43c-.79,4.55-1.67,8.93-2.61,13.07l-56.31,33.51c-6.27-1.24-10.89-3.51-13.9-5.4l72.82-41.17Z"/>
  <path class="cls-9" d="M229.86,332.5c-.94,4.18-1.95,8.11-3.02,11.7l-39.3,22.59c-5.34,.39-10.01,0-14-.78l56.31-33.51Z"/>
  <path class="cls-21" d="M226.83,344.2c-.59,2-1.2,3.89-1.81,5.67-2.18,10.15-24.93,14.77-24.93,14.77-4.54,1.2-8.73,1.87-12.56,2.15l39.3-22.59Z"/>
  <path class="cls-9" d="M391.43,279.39l-80.02,80.49c-1.55-1.03-3.08-2.18-4.56-3.46-1.98-1.7-3.63-3.72-4.9-5.94l72.27-69.23h0c6.04-.6,11.86-1.22,17.19-1.86Z"/>
  <path class="cls-9" d="M412.9,300.37l-59.75,67.55c-.11,.03-.23,.05-.35,.06,0,0-10.96,2.16-23.96-.76l83.13-90.97s.58,11.25,.93,24.12Z"/>
  <path class="cls-11" d="M413.15,319.52l-28.81,39.18c-8.04,3.63-18.26,6.93-31.2,9.22l59.75-67.55c.17,6.38,.29,13.16,.26,19.15Z"/>
  <path class="cls-9" d="M413.15,319.52c0,2.35-.05,4.58-.12,6.61l-21.44,28.9c-2.19,1.24-4.6,2.47-7.26,3.66l28.81-39.18Z"/>
  <path class="cls-11" d="M413.03,326.13c-.16,4.89-.49,8.68-1.07,10.43,0,0-4.37,9.46-20.37,18.47l21.44-28.9Z"/>
  <path class="cls-1" d="M168.46,275.56l-28.28,15.74c1.77-11.1,4.8-18.27,4.8-18.27l23.48,2.53Z"/>
  <path class="cls-9" d="M179.54,276.75l-40.27,22.02c.22-2.64,.53-5.14,.9-7.47l28.28-15.74,11.09,1.19Z"/>
  <path class="cls-6" d="M197.19,278.66l-58.19,31.21c-.14-3.9,0-7.62,.29-11.1l40.27-22.02,17.64,1.91Z"/>
  <path class="cls-9" d="M208.53,279.88l-68.88,38.36c-.36-2.86-.57-5.66-.65-8.37l58.19-31.21,11.34,1.22Z"/>
  <path class="cls-17" d="M228.81,282.06l-86.38,49.51c-1.35-4.54-2.25-9.01-2.79-13.33l68.88-38.36,20.28,2.18Z"/>
  <path class="cls-9" d="M233.91,310.44c-.45,3.05-.93,6.05-1.45,8.99l-72.82,41.17c-2.85-1.8-4.24-3.28-4.24-3.28-.17-.22-.33-.45-.49-.67l79-46.2Z"/>
  <path class="cls-7" d="M181.08,388.41s-47.92-3.73-61.66-49.85c0,0-12.08-43.69,2.5-88.72,0,0,4.94,.56,13.3,1.41-17.15,58.72,0,96.49,0,96.49,11.76,27.48,45.86,40.67,45.86,40.67Z"/>
  <path class="cls-7" d="M428.67,256.07v85.57s-6.43,33.41-67.59,44.2c0,0-42.7,6.6-65.18-22.72,11.67,7.3,35.04,19.54,55.68,15.78,0,0,61.34-8.61,68.29-38.67v-83.07c3.2-.32,6.15-.69,8.8-1.09Z"/>
  <path class="cls-3" d="M326.26,285.25l-28.2,28.2c.05-8.56,.41-17.74,1.36-26.42,0,0,11.25-.67,26.84-1.79Z"/>
  <path class="cls-9" d="M338.28,284.35l-40.05,42.48c-.13-4.14-.2-8.66-.17-13.38l28.2-28.2c3.78-.28,7.82-.58,12.02-.9Z"/>
  <path class="cls-22" d="M353.96,283.1l-55.44,51.55c-.11-2.38-.22-5.01-.29-7.81l40.05-42.48c5.06-.39,10.35-.81,15.68-1.25Z"/>
  <path class="cls-9" d="M359.27,282.64l-60.55,55.9c-.06-1.21-.14-2.51-.2-3.89l55.44-51.55c1.77-.15,3.54-.3,5.31-.46Z"/>
  <path class="cls-20" d="M374.23,281.25l-72.27,69.23c-1.84-3.15-2.92-6.72-3.15-10.42-.03-.49-.06-1-.09-1.53l60.55-55.9h0c5.04-.44,10.06-.9,14.95-1.38Z"/>
  <path class="cls-2" d="M411.97,276.25l-83.13,90.97c-5.66-1.28-11.72-3.52-17.42-7.33l80.02-80.49c8.41-1.01,15.61-2.07,20.53-3.15Z"/>
  <path d="M500.87,231.92s-52.74,8.99-52.42,104.07c0,0,.51,78.89,52.42,94.82,0,0,54.22,15.67,68.87-57.3,0,0,15.93-84.54-19.02-126.94,0,0-14.13-20.81-49.85-14.65Z"/>
  <path class="cls-10" d="M509.1,380.44s-21.03-66.73,4.2-117.16c2.27-4.54,5.82-8.37,10.36-10.63,6.27-3.11,15.07-3.68,21.8,10.87,0,0,14.52,25.44,13.11,65.91,0,0-3.98,42.27-10.02,51.01,0,0-2.18-76.32-11.95-98.67,0,0,9.76,58.07-8.74,97.13,0,0-3.85,5.55-7.13-3.68,0,0-10.86-74.11,11.37-110.54,0,0-7.66,2.53-13.04,16.18-.39,1-.72,2.01-1.02,3.04-2.69,9.22-14.96,54.59-8.94,96.54Z"/>
  <path class="cls-10" d="M520.18,428.69h-11.85s-33.34-25.05-34.11-83.45c0,0-6.55-91.33,39.89-112.74l10.4-.75s-21.58,3.45-32.76,31.58c0,0-21.97,52.37-9.83,102.34,0,0,10.79,56.47,38.26,63.02Z"/>
  <path class="cls-25" d="M224.74,182.78v1.54s-8.68,7.88-21.37,4.72c-7.15-1.78-13.27-6.58-16.3-13.29-.03-.04-.05-.08-.06-.13-.55-1.25-1.03-2.61-1.36-4.07-1.13-4.88-.64-10.84,3.92-17.3,0,0,3.24-4.12,8.71-6.13,.15-.06,.29-.11,.45-.17,2.65-.91,5.81-1.31,9.35-.52,4.79,1.06,9.06,3.95,11.51,8.19,2.26,3.91,3.48,9.77-1.69,16.84,0,0-5.52,8.2-15.49,2.56-2.82-1.59-4.82-4.4-5.18-7.61-.06-.51-.08-1.02-.06-1.56,.08-1.7,.65-3.51,2.15-5.13h0c.2-.24,.43-.46,.67-.67,1.67-1.48,3.82-2.38,6.04-2.24,1.68,.11,3.63,.79,4.97,2.98,1.04,1.69,1.22,3.81,.27,5.53-.32,.59-.76,1.11-1.37,1.41,0,0,3.02-6.56-1.77-7.72-2.5-.6-5.06,.74-6.23,3.02-1.46,2.83-2.11,6.99,4.82,9.03,0,0,6.43,.86,8.3-5.66,.97-3.36,.05-7.03-2.32-9.59-1.99-2.16-5.12-4.2-9.69-3.64-.94,.12-1.85,.34-2.73,.64-.78,.28-1.54,.64-2.26,1.05-1.76,1.02-3.29,2.45-4.45,4.17-1.47,2.17-2.74,5.18-2.65,9.02,0,.87,.1,1.78,.28,2.73,.11,.62,.26,1.22,.43,1.82,1.25,4.28,4.06,8,7.84,10.46,5.23,3.41,14.01,6.3,25.28-.31Z"/>
  <path class="cls-25" d="M215.26,133.33l.64,1.4s-4.62,10.78-17.47,13.19c-7.24,1.36-14.8-.46-20.35-5.3-.04-.02-.08-.06-.11-.09-1.02-.91-2.03-1.95-2.93-3.13-3.06-3.97-5.09-9.59-3.63-17.36,0,0,1.23-5.09,5.37-9.2,.11-.11,.22-.22,.34-.34,2.03-1.93,4.74-3.61,8.28-4.37,4.79-1.03,9.88-.18,13.88,2.66,3.68,2.62,7.23,7.43,5.48,16.01,0,0-1.61,9.76-13.02,8.77-3.22-.28-6.21-2-7.88-4.77-.26-.44-.5-.89-.7-1.39-.63-1.58-.87-3.46-.18-5.56h0c.09-.3,.21-.6,.34-.89,.9-2.04,2.49-3.75,4.56-4.55,1.57-.6,3.63-.79,5.76,.64,1.65,1.1,2.7,2.96,2.55,4.92-.05,.67-.23,1.33-.66,1.85,0,0,.02-7.22-4.82-6.28-2.52,.49-4.3,2.78-4.41,5.34-.15,3.18,.99,7.23,8.15,6.21,0,0,6.2-1.9,5.19-8.6-.52-3.46-2.88-6.41-6.1-7.76-2.71-1.14-6.4-1.69-10.32,.72-.8,.5-1.54,1.08-2.22,1.72-.6,.58-1.13,1.22-1.61,1.89-1.17,1.66-1.97,3.6-2.31,5.64-.44,2.59-.34,5.86,1.34,9.31,.37,.78,.83,1.57,1.39,2.37,.36,.51,.74,1.01,1.15,1.48,2.92,3.37,7.02,5.59,11.48,6.25,6.17,.92,15.36-.1,22.85-10.8Z"/>
  <path class="cls-25" d="M258.62,139.85l.64,1.4s-4.62,10.78-17.47,13.19c-7.24,1.36-14.8-.46-20.35-5.3-.04-.02-.08-.06-.11-.09-1.02-.91-2.03-1.95-2.93-3.13-3.06-3.97-5.09-9.59-3.63-17.36,0,0,1.23-5.09,5.37-9.2,.11-.11,.22-.22,.34-.34,2.03-1.93,4.74-3.61,8.28-4.37,4.79-1.03,9.88-.18,13.88,2.66,3.68,2.62,7.23,7.43,5.48,16.01,0,0-1.61,9.76-13.02,8.77-3.22-.28-6.21-2-7.88-4.77-.26-.44-.5-.89-.7-1.39-.63-1.58-.87-3.46-.18-5.56h0c.09-.3,.21-.6,.34-.89,.9-2.04,2.49-3.75,4.56-4.55,1.57-.6,3.63-.79,5.76,.64,1.65,1.1,2.7,2.96,2.55,4.92-.05,.67-.23,1.33-.66,1.85,0,0,.02-7.22-4.82-6.28-2.52,.49-4.3,2.78-4.41,5.34-.15,3.18,.99,7.23,8.15,6.21,0,0,6.2-1.9,5.19-8.6-.52-3.46-2.88-6.41-6.1-7.76-2.71-1.14-6.4-1.69-10.32,.72-.8,.5-1.54,1.08-2.22,1.72-.6,.58-1.13,1.22-1.61,1.89-1.17,1.66-1.97,3.6-2.31,5.64-.44,2.59-.34,5.86,1.34,9.31,.37,.78,.83,1.57,1.39,2.37,.36,.51,.74,1.01,1.15,1.48,2.92,3.37,7.02,5.59,11.48,6.25,6.17,.92,15.36-.1,22.85-10.8Z"/>
  <path class="cls-25" d="M298.9,148.26l.64,1.4s-4.62,10.78-17.47,13.19c-7.24,1.36-14.8-.46-20.35-5.3-.04-.02-.08-.06-.11-.09-1.02-.91-2.03-1.95-2.93-3.13-3.06-3.97-5.09-9.59-3.63-17.36,0,0,1.23-5.09,5.37-9.2,.11-.11,.22-.22,.34-.34,2.03-1.93,4.74-3.61,8.28-4.37,4.79-1.03,9.88-.18,13.88,2.66,3.68,2.62,7.23,7.43,5.48,16.01,0,0-1.61,9.76-13.02,8.77-3.22-.28-6.21-2-7.88-4.77-.26-.44-.5-.89-.7-1.39-.63-1.58-.87-3.46-.18-5.56h0c.09-.3,.21-.6,.34-.89,.9-2.04,2.49-3.75,4.56-4.55,1.57-.6,3.63-.79,5.76,.64,1.65,1.1,2.7,2.96,2.55,4.92-.05,.67-.23,1.33-.66,1.85,0,0,.02-7.22-4.82-6.28-2.52,.49-4.3,2.78-4.41,5.34-.15,3.18,.99,7.23,8.15,6.21,0,0,6.2-1.9,5.19-8.6-.52-3.46-2.88-6.41-6.1-7.76-2.71-1.14-6.4-1.69-10.32,.72-.8,.5-1.54,1.08-2.22,1.72-.6,.58-1.13,1.22-1.61,1.89-1.17,1.66-1.97,3.6-2.31,5.64-.44,2.59-.34,5.86,1.34,9.31,.37,.78,.83,1.57,1.39,2.37,.36,.51,.74,1.01,1.15,1.48,2.92,3.37,7.02,5.59,11.48,6.25,6.17,.92,15.36-.1,22.85-10.8Z"/>
  <path class="cls-25" d="M310.56,177.22l-1.36,.72s-11.04-3.95-14.22-16.64c-1.79-7.14-.43-14.81,4.06-20.63,.02-.04,.05-.08,.08-.12,.85-1.08,1.82-2.14,2.95-3.12,3.77-3.3,9.26-5.66,17.11-4.68,0,0,5.16,.92,9.51,4.8,.12,.1,.24,.21,.36,.32,2.05,1.91,3.89,4.51,4.86,8,1.32,4.72,.78,9.85-1.82,14.01-2.39,3.83-6.98,7.67-15.65,6.44,0,0-9.84-1.02-9.55-12.46,.08-3.24,1.62-6.32,4.28-8.16,.42-.29,.86-.55,1.35-.78,1.54-.73,3.4-1.07,5.54-.52h0c.3,.07,.6,.17,.9,.28,2.09,.77,3.89,2.25,4.82,4.28,.69,1.53,1.01,3.57-.29,5.79-1,1.71-2.79,2.87-4.76,2.84-.67,0-1.34-.15-1.89-.55,0,0,7.21-.42,5.98-5.19-.65-2.48-3.03-4.12-5.6-4.08-3.18,.04-7.16,1.43-5.7,8.51,0,0,2.27,6.07,8.9,4.66,3.42-.73,6.22-3.26,7.37-6.56,.97-2.77,1.3-6.49-1.35-10.26-.55-.77-1.17-1.47-1.86-2.11-.61-.56-1.28-1.06-1.99-1.5-1.73-1.07-3.71-1.75-5.77-1.96-2.61-.28-5.87,.02-9.21,1.91-.76,.42-1.52,.93-2.28,1.53-.49,.39-.96,.8-1.41,1.24-3.19,3.12-5.15,7.35-5.54,11.84-.55,6.22,1.03,15.32,12.17,22.16Z"/>
  <path class="cls-25" d="M350.07,173.36l-1.36,.72s-11.04-3.95-14.22-16.64c-1.79-7.14-.43-14.81,4.06-20.63,.02-.04,.05-.08,.08-.12,.85-1.08,1.82-2.14,2.95-3.12,3.77-3.3,9.26-5.66,17.11-4.68,0,0,5.16,.92,9.51,4.8,.12,.1,.24,.21,.36,.32,2.05,1.91,3.89,4.51,4.86,8,1.32,4.72,.78,9.85-1.82,14.01-2.39,3.83-6.98,7.67-15.65,6.44,0,0-9.84-1.02-9.55-12.46,.08-3.24,1.62-6.32,4.28-8.16,.42-.29,.86-.55,1.35-.78,1.54-.73,3.4-1.07,5.54-.52h0c.3,.07,.6,.17,.9,.28,2.09,.77,3.89,2.25,4.82,4.28,.69,1.53,1.01,3.57-.29,5.79-1,1.71-2.79,2.87-4.76,2.84-.67,0-1.34-.15-1.89-.55,0,0,7.21-.42,5.98-5.19-.65-2.48-3.03-4.12-5.6-4.08-3.18,.04-7.16,1.43-5.7,8.51,0,0,2.27,6.07,8.9,4.66,3.42-.73,6.22-3.26,7.37-6.56,.97-2.77,1.3-6.49-1.35-10.26-.55-.77-1.17-1.47-1.86-2.11-.61-.56-1.28-1.06-1.99-1.5-1.73-1.07-3.71-1.75-5.77-1.96-2.61-.28-5.87,.02-9.21,1.91-.76,.42-1.52,.93-2.28,1.53-.49,.39-.96,.8-1.41,1.24-3.19,3.12-5.15,7.35-5.54,11.84-.55,6.22,1.03,15.32,12.17,22.16Z"/>
  <path class="cls-25" d="M243.15,98.45l.47,1.46s-5.87,10.15-18.92,11.01c-7.35,.48-14.64-2.23-19.57-7.69-.04-.03-.07-.06-.1-.1-.91-1.02-1.78-2.18-2.54-3.46-2.56-4.3-3.9-10.13-1.53-17.67,0,0,1.83-4.91,6.43-8.49,.12-.1,.25-.19,.38-.3,2.25-1.68,5.14-3.01,8.74-3.35,4.88-.45,9.83,1,13.46,4.3,3.34,3.04,6.29,8.25,3.52,16.55,0,0-2.76,9.5-13.97,7.15-3.17-.66-5.93-2.73-7.26-5.68-.21-.47-.39-.95-.53-1.47-.44-1.65-.45-3.54,.48-5.54h0c.12-.29,.27-.57,.44-.84,1.14-1.92,2.92-3.43,5.07-3.97,1.63-.4,3.7-.35,5.64,1.33,1.5,1.29,2.33,3.26,1.94,5.19-.13,.66-.39,1.29-.88,1.76,0,0,.88-7.16-4.03-6.81-2.56,.19-4.6,2.24-5.02,4.77-.53,3.14,.12,7.3,7.35,7.14,0,0,6.38-1.14,6.18-7.92-.1-3.5-2.1-6.71-5.13-8.43-2.55-1.46-6.15-2.44-10.33-.52-.86,.4-1.66,.89-2.41,1.45-.66,.5-1.27,1.07-1.83,1.69-1.36,1.51-2.39,3.33-2.97,5.33-.74,2.52-1.04,5.77,.22,9.4,.27,.82,.64,1.66,1.1,2.52,.29,.55,.62,1.09,.97,1.6,2.5,3.7,6.3,6.39,10.65,7.58,6.02,1.65,15.26,1.74,23.98-7.99Z"/>
  <path class="cls-25" d="M282.08,116.69v1.54s-8.62,7.94-21.33,4.87c-7.16-1.73-13.31-6.49-16.39-13.18-.03-.04-.05-.08-.07-.13-.56-1.25-1.05-2.61-1.39-4.06-1.17-4.87-.71-10.83,3.81-17.33,0,0,3.21-4.14,8.67-6.19,.15-.06,.29-.11,.45-.17,2.65-.93,5.8-1.35,9.34-.59,4.8,1.03,9.09,3.89,11.56,8.12,2.28,3.9,3.55,9.75-1.57,16.85,0,0-5.47,8.24-15.47,2.66-2.83-1.57-4.85-4.37-5.24-7.58-.06-.51-.09-1.02-.07-1.56,.07-1.7,.63-3.51,2.11-5.14h0c.2-.24,.43-.46,.67-.68,1.66-1.49,3.81-2.4,6.03-2.28,1.68,.1,3.63,.77,4.99,2.95,1.05,1.68,1.25,3.8,.3,5.53-.32,.59-.76,1.12-1.36,1.42,0,0,2.98-6.58-1.82-7.7-2.5-.58-5.06,.77-6.21,3.06-1.44,2.84-2.06,7,4.89,9,0,0,6.43,.81,8.26-5.72,.94-3.37,0-7.03-2.38-9.58-2-2.15-5.15-4.16-9.71-3.57-.94,.13-1.85,.35-2.73,.66-.78,.28-1.53,.65-2.25,1.06-1.75,1.03-3.27,2.47-4.42,4.2-1.46,2.18-2.71,5.2-2.59,9.04,.02,.87,.11,1.78,.29,2.73,.11,.62,.27,1.22,.45,1.82,1.28,4.27,4.11,7.97,7.91,10.41,5.25,3.37,14.05,6.2,25.27-.48Z"/>
  <path class="cls-25" d="M301.46,144.28l-1.36,.72s-11.03-3.98-14.19-16.66c-1.78-7.14-.4-14.81,4.1-20.62,.02-.04,.05-.08,.08-.12,.85-1.07,1.83-2.14,2.96-3.11,3.78-3.29,9.28-5.64,17.12-4.65,0,0,5.16,.93,9.5,4.82,.12,.1,.24,.21,.36,.32,2.05,1.92,3.88,4.52,4.84,8.01,1.31,4.73,.76,9.86-1.84,14.01-2.4,3.83-7,7.65-15.67,6.41,0,0-9.84-1.03-9.52-12.48,.09-3.24,1.63-6.32,4.3-8.15,.42-.29,.86-.55,1.35-.78,1.54-.73,3.41-1.07,5.54-.51h0c.3,.07,.6,.17,.9,.28,2.09,.78,3.89,2.26,4.81,4.29,.69,1.53,1,3.58-.3,5.79-1,1.71-2.79,2.87-4.76,2.83-.67,0-1.34-.15-1.89-.55,0,0,7.21-.41,5.99-5.18-.64-2.48-3.02-4.13-5.59-4.09-3.18,.03-7.16,1.41-5.72,8.5,0,0,2.26,6.08,8.89,4.67,3.42-.72,6.23-3.25,7.39-6.55,.98-2.77,1.31-6.49-1.33-10.26-.55-.77-1.17-1.48-1.85-2.11-.61-.56-1.28-1.06-1.98-1.5-1.73-1.07-3.7-1.76-5.77-1.97-2.61-.28-5.87,0-9.21,1.89-.76,.41-1.52,.92-2.29,1.53-.49,.39-.96,.8-1.41,1.24-3.2,3.11-5.16,7.34-5.57,11.82-.56,6.22,1,15.32,12.12,22.18Z"/>
  <path class="cls-25" d="M267.89,182.67l.64,1.4s-4.62,10.78-17.47,13.19c-7.24,1.36-14.8-.46-20.35-5.3-.04-.02-.08-.06-.11-.09-1.02-.91-2.03-1.95-2.93-3.13-3.06-3.97-5.09-9.59-3.63-17.36,0,0,1.23-5.09,5.37-9.2,.11-.11,.22-.22,.34-.34,2.03-1.93,4.74-3.61,8.28-4.37,4.79-1.03,9.88-.18,13.88,2.66,3.68,2.62,7.23,7.43,5.48,16.01,0,0-1.61,9.76-13.02,8.77-3.22-.28-6.21-2-7.88-4.77-.26-.44-.5-.89-.7-1.39-.63-1.58-.87-3.46-.18-5.56h0c.09-.3,.21-.6,.34-.89,.9-2.04,2.49-3.75,4.56-4.55,1.57-.6,3.63-.79,5.76,.64,1.65,1.1,2.7,2.96,2.55,4.92-.05,.67-.23,1.33-.66,1.85,0,0,.02-7.22-4.82-6.28-2.52,.49-4.3,2.78-4.41,5.34-.15,3.18,.99,7.23,8.15,6.21,0,0,6.2-1.9,5.19-8.6-.52-3.46-2.88-6.41-6.1-7.76-2.71-1.14-6.4-1.69-10.32,.72-.8,.5-1.54,1.08-2.22,1.72-.6,.58-1.13,1.22-1.61,1.89-1.17,1.66-1.97,3.6-2.31,5.64-.44,2.59-.34,5.86,1.34,9.31,.37,.78,.83,1.57,1.39,2.37,.36,.51,.74,1.01,1.15,1.48,2.92,3.37,7.02,5.59,11.48,6.25,6.17,.92,15.36-.1,22.85-10.8Z"/>
  <path class="cls-25" d="M308.17,191.08l.64,1.4s-4.62,10.78-17.47,13.19c-7.24,1.36-14.8-.46-20.35-5.3-.04-.02-.08-.06-.11-.09-1.02-.91-2.03-1.95-2.93-3.13-3.06-3.97-5.09-9.59-3.63-17.36,0,0,1.23-5.09,5.37-9.2,.11-.11,.22-.22,.34-.34,2.03-1.93,4.74-3.61,8.28-4.37,4.79-1.03,9.88-.18,13.88,2.66,3.68,2.62,7.23,7.43,5.48,16.01,0,0-1.61,9.76-13.02,8.77-3.22-.28-6.21-2-7.88-4.77-.26-.44-.5-.89-.7-1.39-.63-1.58-.87-3.46-.18-5.56h0c.09-.3,.21-.6,.34-.89,.9-2.04,2.49-3.75,4.56-4.55,1.57-.6,3.63-.79,5.76,.64,1.65,1.1,2.7,2.96,2.55,4.92-.05,.67-.23,1.33-.66,1.85,0,0,.02-7.22-4.82-6.28-2.52,.49-4.3,2.78-4.41,5.34-.15,3.18,.99,7.23,8.15,6.21,0,0,6.2-1.9,5.19-8.6-.52-3.46-2.88-6.41-6.1-7.76-2.71-1.14-6.4-1.69-10.32,.72-.8,.5-1.54,1.08-2.22,1.72-.6,.58-1.13,1.22-1.61,1.89-1.17,1.66-1.97,3.6-2.31,5.64-.44,2.59-.34,5.86,1.34,9.31,.37,.78,.83,1.57,1.39,2.37,.36,.51,.74,1.01,1.15,1.48,2.92,3.37,7.02,5.59,11.48,6.25,6.17,.92,15.36-.1,22.85-10.8Z"/>
  <path class="cls-25" d="M319.83,220.04l-1.36,.72s-11.04-3.95-14.22-16.64c-1.79-7.14-.43-14.81,4.06-20.63,.02-.04,.05-.08,.08-.12,.85-1.08,1.82-2.14,2.95-3.12,3.77-3.3,9.26-5.66,17.11-4.68,0,0,5.16,.92,9.51,4.8,.12,.1,.24,.21,.36,.32,2.05,1.91,3.89,4.51,4.86,8,1.32,4.72,.78,9.85-1.82,14.01-2.39,3.83-6.98,7.67-15.65,6.44,0,0-9.84-1.02-9.55-12.46,.08-3.24,1.62-6.32,4.28-8.16,.42-.29,.86-.55,1.35-.78,1.54-.73,3.4-1.07,5.54-.52h0c.3,.07,.6,.17,.9,.28,2.09,.77,3.89,2.25,4.82,4.28,.69,1.53,1.01,3.57-.29,5.79-1,1.71-2.79,2.87-4.76,2.84-.67,0-1.34-.15-1.89-.55,0,0,7.21-.42,5.98-5.19-.65-2.48-3.03-4.12-5.6-4.08-3.18,.04-7.16,1.43-5.7,8.51,0,0,2.27,6.07,8.9,4.66,3.42-.73,6.22-3.26,7.37-6.56,.97-2.77,1.3-6.49-1.35-10.26-.55-.77-1.17-1.47-1.86-2.11-.61-.56-1.28-1.06-1.99-1.5-1.73-1.07-3.71-1.75-5.77-1.96-2.61-.28-5.87,.02-9.21,1.91-.76,.42-1.52,.93-2.28,1.53-.49,.39-.96,.8-1.41,1.24-3.19,3.12-5.15,7.35-5.54,11.84-.55,6.22,1.03,15.32,12.17,22.16Z"/>
  <path class="cls-25" d="M242.14,222.5l.64,1.4s-4.62,10.78-17.47,13.19c-7.24,1.36-14.8-.46-20.35-5.3-.04-.02-.08-.06-.11-.09-1.02-.91-2.03-1.95-2.93-3.13-3.06-3.97-5.09-9.59-3.63-17.36,0,0,1.23-5.09,5.37-9.2,.11-.11,.22-.22,.34-.34,2.03-1.93,4.74-3.61,8.28-4.37,4.79-1.03,9.88-.18,13.88,2.66,3.68,2.62,7.23,7.43,5.48,16.01,0,0-1.61,9.76-13.02,8.77-3.22-.28-6.21-2-7.88-4.77-.26-.44-.5-.89-.7-1.39-.63-1.58-.87-3.46-.18-5.56h0c.09-.3,.21-.6,.34-.89,.9-2.04,2.49-3.75,4.56-4.55,1.57-.6,3.63-.79,5.76,.64,1.65,1.1,2.7,2.96,2.55,4.92-.05,.67-.23,1.33-.66,1.85,0,0,.02-7.22-4.82-6.28-2.52,.49-4.3,2.78-4.41,5.34-.15,3.18,.99,7.23,8.15,6.21,0,0,6.2-1.9,5.19-8.6-.52-3.46-2.88-6.41-6.1-7.76-2.71-1.14-6.4-1.69-10.32,.72-.8,.5-1.54,1.08-2.22,1.72-.6,.58-1.13,1.22-1.61,1.89-1.17,1.66-1.97,3.6-2.31,5.64-.44,2.59-.34,5.86,1.34,9.31,.37,.78,.83,1.57,1.39,2.37,.36,.51,.74,1.01,1.15,1.48,2.92,3.37,7.02,5.59,11.48,6.25,6.17,.92,15.36-.1,22.85-10.8Z"/>
  <path class="cls-25" d="M279.81,226.06l.64,1.4s-4.62,10.78-17.47,13.19c-7.24,1.36-14.8-.46-20.35-5.3-.04-.02-.08-.06-.11-.09-1.02-.91-2.03-1.95-2.93-3.13-3.06-3.97-5.09-9.59-3.63-17.36,0,0,1.23-5.09,5.37-9.2,.11-.11,.22-.22,.34-.34,2.03-1.93,4.74-3.61,8.28-4.37,4.79-1.03,9.88-.18,13.88,2.66,3.68,2.62,7.23,7.43,5.48,16.01,0,0-1.61,9.76-13.02,8.77-3.22-.28-6.21-2-7.88-4.77-.26-.44-.5-.89-.7-1.39-.63-1.58-.87-3.46-.18-5.56h0c.09-.3,.21-.6,.34-.89,.9-2.04,2.49-3.75,4.56-4.55,1.57-.6,3.63-.79,5.76,.64,1.65,1.1,2.7,2.96,2.55,4.92-.05,.67-.23,1.33-.66,1.85,0,0,.02-7.22-4.82-6.28-2.52,.49-4.3,2.78-4.41,5.34-.15,3.18,.99,7.23,8.15,6.21,0,0,6.2-1.9,5.19-8.6-.52-3.46-2.88-6.41-6.1-7.76-2.71-1.14-6.4-1.69-10.32,.72-.8,.5-1.54,1.08-2.22,1.72-.6,.58-1.13,1.22-1.61,1.89-1.17,1.66-1.97,3.6-2.31,5.64-.44,2.59-.34,5.86,1.34,9.31,.37,.78,.83,1.57,1.39,2.37,.36,.51,.74,1.01,1.15,1.48,2.92,3.37,7.02,5.59,11.48,6.25,6.17,.92,15.36-.1,22.85-10.8Z"/>
  <path class="cls-25" d="M282.48,250.71l-1.36,.72s-11.04-3.95-14.22-16.64c-1.79-7.14-.43-14.81,4.06-20.63,.02-.04,.05-.08,.08-.12,.85-1.08,1.82-2.14,2.95-3.12,3.77-3.3,9.26-5.66,17.11-4.68,0,0,5.16,.92,9.51,4.8,.12,.1,.24,.21,.36,.32,2.05,1.91,3.89,4.51,4.86,8,1.32,4.72,.78,9.85-1.82,14.01-2.39,3.83-6.98,7.67-15.65,6.44,0,0-9.84-1.02-9.55-12.46,.08-3.24,1.62-6.32,4.28-8.16,.42-.29,.86-.55,1.35-.78,1.54-.73,3.4-1.07,5.54-.52h0c.3,.07,.6,.17,.9,.28,2.09,.77,3.89,2.25,4.82,4.28,.69,1.53,1.01,3.57-.29,5.79-1,1.71-2.79,2.87-4.76,2.84-.67,0-1.34-.15-1.89-.55,0,0,7.21-.42,5.98-5.19-.65-2.48-3.03-4.12-5.6-4.08-3.18,.04-7.16,1.43-5.7,8.51,0,0,2.27,6.07,8.9,4.66,3.42-.73,6.22-3.26,7.37-6.56,.97-2.77,1.3-6.49-1.35-10.26-.55-.77-1.17-1.47-1.86-2.11-.61-.56-1.28-1.06-1.99-1.5-1.73-1.07-3.71-1.75-5.77-1.96-2.61-.28-5.87,.02-9.21,1.91-.76,.42-1.52,.93-2.28,1.53-.49,.39-.96,.8-1.41,1.24-3.19,3.12-5.15,7.35-5.54,11.84-.55,6.22,1.03,15.32,12.17,22.16Z"/>
  <path class="cls-25" d="M344.56,250.13l-.87,1.27s-11.62,1.56-20.28-8.24c-4.87-5.52-7.19-12.95-5.88-20.19,0-.05,0-.09,.02-.14,.26-1.34,.63-2.74,1.19-4.12,1.84-4.66,5.63-9.28,13.05-12.02,0,0,5-1.55,10.65-.11,.15,.04,.31,.08,.47,.12,2.7,.75,5.53,2.22,7.99,4.87,3.34,3.59,5.22,8.39,4.83,13.28-.36,4.5-2.68,10.02-10.95,12.91,0,0-9.2,3.62-14.2-6.68-1.42-2.91-1.47-6.36,.05-9.21,.24-.45,.51-.89,.84-1.31,1.03-1.36,2.53-2.52,4.68-3.01h0c.3-.08,.61-.13,.93-.17,2.21-.27,4.49,.21,6.24,1.59,1.32,1.04,2.54,2.71,2.4,5.28-.1,1.98-1.16,3.83-2.92,4.71-.6,.3-1.26,.48-1.93,.38,0,0,6.21-3.68,2.92-7.36-1.71-1.91-4.59-2.27-6.85-1.05-2.81,1.5-5.7,4.56-1.15,10.18,0,0,4.81,4.35,10.04,.05,2.7-2.22,4.03-5.76,3.53-9.22-.41-2.91-1.83-6.36-5.91-8.49-.84-.43-1.72-.77-2.62-1.02-.8-.22-1.63-.35-2.45-.42-2.03-.16-4.1,.15-6.03,.91-2.45,.95-5.2,2.71-7.3,5.92-.48,.72-.93,1.52-1.32,2.41-.26,.57-.48,1.15-.68,1.75-1.4,4.24-1.2,8.89,.52,13.06,2.37,5.77,7.96,13.13,20.99,14.09Z"/>
  <path class="cls-25" d="M391.24,235.6l-.87,1.27s-11.62,1.56-20.28-8.24c-4.87-5.52-7.19-12.95-5.88-20.19,0-.05,0-.09,.02-.14,.26-1.34,.63-2.74,1.19-4.12,1.84-4.66,5.63-9.28,13.05-12.02,0,0,5-1.55,10.65-.11,.15,.04,.31,.08,.47,.12,2.7,.75,5.53,2.22,7.99,4.87,3.34,3.59,5.22,8.39,4.83,13.28-.36,4.5-2.68,10.02-10.95,12.91,0,0-9.2,3.62-14.2-6.68-1.42-2.91-1.47-6.36,.05-9.21,.24-.45,.51-.89,.84-1.31,1.03-1.36,2.53-2.52,4.68-3.01h0c.3-.08,.61-.13,.93-.17,2.21-.27,4.49,.21,6.24,1.59,1.32,1.04,2.54,2.71,2.4,5.28-.1,1.98-1.16,3.83-2.92,4.71-.6,.3-1.26,.48-1.93,.38,0,0,6.21-3.68,2.92-7.36-1.71-1.91-4.59-2.27-6.85-1.05-2.81,1.5-5.7,4.56-1.15,10.18,0,0,4.81,4.35,10.04,.05,2.7-2.22,4.03-5.76,3.53-9.22-.41-2.91-1.83-6.36-5.91-8.49-.84-.43-1.72-.77-2.62-1.02-.8-.22-1.63-.35-2.45-.42-2.03-.16-4.1,.15-6.03,.91-2.45,.95-5.2,2.71-7.3,5.92-.48,.72-.93,1.52-1.32,2.41-.26,.57-.48,1.15-.68,1.75-1.4,4.24-1.2,8.89,.52,13.06,2.37,5.77,7.96,13.13,20.99,14.09Z"/>
  <path class="cls-25" d="M416.97,253.16l-.87,1.27s-11.62,1.56-20.28-8.24c-4.87-5.52-7.19-12.95-5.88-20.19,0-.05,0-.09,.02-.14,.26-1.34,.63-2.74,1.19-4.12,1.84-4.66,5.63-9.28,13.05-12.02,0,0,5-1.55,10.65-.11,.15,.04,.31,.08,.47,.12,2.7,.75,5.53,2.22,7.99,4.87,3.34,3.59,5.22,8.39,4.83,13.28-.36,4.5-2.68,10.02-10.95,12.91,0,0-9.2,3.62-14.2-6.68-1.42-2.91-1.47-6.36,.05-9.21,.24-.45,.51-.89,.84-1.31,1.03-1.36,2.53-2.52,4.68-3.01h0c.3-.08,.61-.13,.93-.17,2.21-.27,4.49,.21,6.24,1.59,1.32,1.04,2.54,2.71,2.4,5.28-.1,1.98-1.16,3.83-2.92,4.71-.6,.3-1.26,.48-1.93,.38,0,0,6.21-3.68,2.92-7.36-1.71-1.91-4.59-2.27-6.85-1.05-2.81,1.5-5.7,4.56-1.15,10.18,0,0,4.81,4.35,10.04,.05,2.7-2.22,4.03-5.76,3.53-9.22-.41-2.91-1.83-6.36-5.91-8.49-.84-.43-1.72-.77-2.62-1.02-.8-.22-1.63-.35-2.45-.42-2.03-.16-4.1,.15-6.03,.91-2.45,.95-5.2,2.71-7.3,5.92-.48,.72-.93,1.52-1.32,2.41-.26,.57-.48,1.15-.68,1.75-1.4,4.24-1.2,8.89,.52,13.06,2.37,5.77,7.96,13.13,20.99,14.09Z"/>
  <path class="cls-25" d="M417.71,207.32l-.45-1.47s6-10.07,19.06-10.76c7.35-.39,14.61,2.42,19.47,7.95,.04,.03,.07,.07,.1,.1,.89,1.04,1.75,2.2,2.49,3.49,2.51,4.34,3.77,10.18,1.3,17.69,0,0-1.9,4.88-6.54,8.41-.12,.1-.25,.19-.38,.29-2.27,1.65-5.17,2.95-8.79,3.23-4.89,.39-9.82-1.13-13.4-4.48-3.3-3.08-6.18-8.33-3.31-16.6,0,0,2.89-9.46,14.06-6.97,3.16,.7,5.89,2.8,7.18,5.77,.2,.47,.38,.95,.51,1.47,.42,1.65,.4,3.55-.55,5.53h0c-.13,.29-.28,.57-.45,.84-1.16,1.9-2.96,3.39-5.12,3.9-1.64,.38-3.7,.3-5.63-1.4-1.49-1.31-2.28-3.29-1.87-5.21,.14-.66,.41-1.29,.9-1.75,0,0-.97,7.15,3.94,6.86,2.56-.16,4.63-2.18,5.08-4.71,.57-3.13-.02-7.3-7.25-7.23,0,0-6.4,1.06-6.28,7.84,.06,3.5,2.01,6.73,5.02,8.5,2.53,1.49,6.12,2.52,10.33,.65,.86-.39,1.67-.87,2.43-1.42,.67-.49,1.29-1.06,1.85-1.66,1.38-1.49,2.43-3.3,3.04-5.29,.77-2.51,1.11-5.76-.1-9.4-.26-.83-.62-1.67-1.06-2.53-.29-.56-.6-1.1-.95-1.62-2.45-3.73-6.22-6.47-10.55-7.72-6-1.73-15.23-1.93-24.08,7.68Z"/>
  <path class="cls-25" d="M457.31,219.05l-.38-1.26s5.14-8.62,16.31-9.21c6.29-.33,12.5,2.07,16.66,6.8,.03,.02,.06,.06,.08,.09,.77,.89,1.5,1.88,2.13,2.99,2.15,3.71,3.23,8.71,1.11,15.14,0,0-1.62,4.18-5.6,7.2-.11,.08-.21,.16-.33,.25-1.94,1.41-4.43,2.52-7.52,2.77-4.18,.33-8.4-.97-11.47-3.83-2.82-2.64-5.29-7.13-2.83-14.2,0,0,2.47-8.09,12.03-5.97,2.7,.6,5.04,2.4,6.15,4.94,.17,.4,.32,.82,.43,1.26,.36,1.41,.34,3.03-.47,4.73h0c-.11,.25-.24,.48-.38,.72-.99,1.63-2.53,2.9-4.38,3.34-1.4,.33-3.17,.26-4.81-1.2-1.27-1.12-1.95-2.81-1.6-4.46,.12-.56,.35-1.1,.77-1.5,0,0-.83,6.12,3.38,5.87,2.19-.13,3.96-1.87,4.35-4.03,.49-2.68-.02-6.25-6.21-6.19,0,0-5.47,.91-5.37,6.71,.05,2.99,1.72,5.76,4.3,7.27,2.17,1.27,5.24,2.16,8.84,.56,.74-.33,1.43-.74,2.08-1.21,.57-.42,1.1-.9,1.58-1.42,1.18-1.28,2.08-2.83,2.6-4.53,.66-2.15,.95-4.93-.09-8.05-.22-.71-.53-1.43-.91-2.17-.24-.48-.52-.94-.81-1.38-2.09-3.19-5.32-5.53-9.03-6.6-5.13-1.48-13.04-1.65-20.61,6.57Z"/>
  <path class="cls-25" d="M494.75,207.03l-.38-1.26s5.14-8.62,16.31-9.21c6.29-.33,12.5,2.07,16.66,6.8,.03,.02,.06,.06,.08,.09,.77,.89,1.5,1.88,2.13,2.99,2.15,3.71,3.23,8.71,1.11,15.14,0,0-1.62,4.18-5.6,7.2-.11,.08-.21,.16-.33,.25-1.94,1.41-4.43,2.52-7.52,2.77-4.18,.33-8.4-.97-11.47-3.83-2.82-2.64-5.29-7.13-2.83-14.2,0,0,2.47-8.09,12.03-5.97,2.7,.6,5.04,2.4,6.15,4.94,.17,.4,.32,.82,.43,1.26,.36,1.41,.34,3.03-.47,4.73h0c-.11,.25-.24,.48-.38,.72-.99,1.63-2.53,2.9-4.38,3.34-1.4,.33-3.17,.26-4.81-1.2-1.27-1.12-1.95-2.81-1.6-4.46,.12-.56,.35-1.1,.77-1.5,0,0-.83,6.12,3.38,5.87,2.19-.13,3.96-1.87,4.35-4.03,.49-2.68-.02-6.25-6.21-6.19,0,0-5.47,.91-5.37,6.71,.05,2.99,1.72,5.76,4.3,7.27,2.17,1.27,5.24,2.16,8.84,.56,.74-.33,1.43-.74,2.08-1.21,.57-.42,1.1-.9,1.58-1.42,1.18-1.28,2.08-2.83,2.6-4.53,.66-2.15,.95-4.93-.09-8.05-.22-.71-.53-1.43-.91-2.17-.24-.48-.52-.94-.81-1.38-2.09-3.19-5.32-5.53-9.03-6.6-5.13-1.48-13.04-1.65-20.61,6.57Z"/>
  <path class="cls-25" d="M492.57,171.55l-.38-1.26s5.14-8.62,16.31-9.21c6.29-.33,12.5,2.07,16.66,6.8,.03,.02,.06,.06,.08,.09,.77,.89,1.5,1.88,2.13,2.99,2.15,3.71,3.23,8.71,1.11,15.14,0,0-1.62,4.18-5.6,7.2-.11,.08-.21,.16-.33,.25-1.94,1.41-4.43,2.52-7.52,2.77-4.18,.33-8.4-.97-11.47-3.83-2.82-2.64-5.29-7.13-2.83-14.2,0,0,2.47-8.09,12.03-5.97,2.7,.6,5.04,2.4,6.15,4.94,.17,.4,.32,.82,.43,1.26,.36,1.41,.34,3.03-.47,4.73h0c-.11,.25-.24,.48-.38,.72-.99,1.63-2.53,2.9-4.38,3.34-1.4,.33-3.17,.26-4.81-1.2-1.27-1.12-1.95-2.81-1.6-4.46,.12-.56,.35-1.1,.77-1.5,0,0-.83,6.12,3.38,5.87,2.19-.13,3.96-1.87,4.35-4.03,.49-2.68-.02-6.25-6.21-6.19,0,0-5.47,.91-5.37,6.71,.05,2.99,1.72,5.76,4.3,7.27,2.17,1.27,5.24,2.16,8.84,.56,.74-.33,1.43-.74,2.08-1.21,.57-.42,1.1-.9,1.58-1.42,1.18-1.28,2.08-2.83,2.6-4.53,.66-2.15,.95-4.93-.09-8.05-.22-.71-.53-1.43-.91-2.17-.24-.48-.52-.94-.81-1.38-2.09-3.19-5.32-5.53-9.03-6.6-5.13-1.48-13.04-1.65-20.61,6.57Z"/>
  <path class="cls-25" d="M483.76,167.59l-1.6-.19s-7.13-9.99-2.3-22.79c2.72-7.21,8.46-12.99,15.8-15.32,.04-.02,.09-.04,.14-.05,1.37-.42,2.84-.75,4.4-.92,5.21-.58,11.34,.66,17.5,6.19,0,0,3.88,3.87,5.31,9.8,.04,.16,.08,.32,.12,.49,.62,2.87,.65,6.2-.6,9.78-1.69,4.85-5.21,8.93-9.92,10.96-4.34,1.87-10.58,2.42-17.3-3.81,0,0-7.85-6.74-.77-16.41,2-2.73,5.16-4.47,8.55-4.46,.53,0,1.07,.04,1.62,.13,1.76,.29,3.57,1.11,5.07,2.86h0c.21,.24,.42,.51,.61,.78,1.34,1.91,2,4.26,1.59,6.55-.32,1.73-1.27,3.67-3.71,4.8-1.88,.88-4.11,.81-5.78-.4-.57-.41-1.06-.93-1.3-1.6,0,0,6.44,3.94,8.24-.9,.93-2.52-.15-5.35-2.38-6.85-2.76-1.87-7.01-3.04-9.98,3.91,0,0-1.67,6.58,4.87,9.31,3.37,1.42,7.3,.91,10.25-1.24,2.49-1.8,4.99-4.81,4.96-9.62,0-.99-.13-1.97-.34-2.92-.19-.85-.47-1.68-.82-2.47-.85-1.95-2.14-3.72-3.79-5.13-2.08-1.8-5.05-3.48-9.05-3.86-.9-.1-1.86-.11-2.88-.05-.65,.04-1.3,.12-1.95,.23-4.6,.78-8.81,3.24-11.83,6.87-4.18,5.02-8.26,13.79-2.76,26.31Z"/>
  <path class="cls-25" d="M447.46,157.91l-1.6-.19s-7.13-9.99-2.3-22.79c2.72-7.21,8.46-12.99,15.8-15.32,.04-.02,.09-.04,.14-.05,1.37-.42,2.84-.75,4.4-.92,5.21-.58,11.34,.66,17.5,6.19,0,0,3.88,3.87,5.31,9.8,.04,.16,.08,.32,.12,.49,.62,2.87,.65,6.2-.6,9.78-1.69,4.85-5.21,8.93-9.92,10.96-4.34,1.87-10.58,2.42-17.3-3.81,0,0-7.85-6.74-.77-16.41,2-2.73,5.16-4.47,8.55-4.46,.53,0,1.07,.04,1.62,.13,1.76,.29,3.57,1.11,5.07,2.86h0c.21,.24,.42,.51,.61,.78,1.34,1.91,2,4.26,1.59,6.55-.32,1.73-1.27,3.67-3.71,4.8-1.88,.88-4.11,.81-5.78-.4-.57-.41-1.06-.93-1.3-1.6,0,0,6.44,3.94,8.24-.9,.93-2.52-.15-5.35-2.38-6.85-2.76-1.87-7.01-3.04-9.98,3.91,0,0-1.67,6.58,4.87,9.31,3.37,1.42,7.3,.91,10.25-1.24,2.49-1.8,4.99-4.81,4.96-9.62,0-.99-.13-1.97-.34-2.92-.19-.85-.47-1.68-.82-2.47-.85-1.95-2.14-3.72-3.79-5.13-2.08-1.8-5.05-3.48-9.05-3.86-.9-.1-1.86-.11-2.88-.05-.65,.04-1.3,.12-1.95,.23-4.6,.78-8.81,3.24-11.83,6.87-4.18,5.02-8.26,13.79-2.76,26.31Z"/>
  <path class="cls-25" d="M453.7,117.06l-1.49-.18s-6.65-9.31-2.14-21.24c2.54-6.72,7.89-12.11,14.73-14.28,.04-.02,.09-.04,.13-.05,1.28-.39,2.65-.7,4.1-.86,4.86-.54,10.57,.62,16.32,5.77,0,0,3.62,3.61,4.95,9.14,.04,.15,.07,.3,.11,.46,.58,2.67,.61,5.78-.56,9.11-1.57,4.52-4.86,8.33-9.25,10.22-4.05,1.74-9.86,2.26-16.12-3.55,0,0-7.32-6.29-.72-15.3,1.86-2.55,4.81-4.16,7.97-4.16,.5,0,1,.04,1.51,.12,1.64,.27,3.32,1.03,4.72,2.66h0c.2,.22,.39,.47,.57,.73,1.25,1.78,1.87,3.97,1.48,6.11-.3,1.61-1.18,3.42-3.46,4.48-1.75,.82-3.83,.75-5.39-.37-.53-.38-.99-.87-1.21-1.49,0,0,6.01,3.67,7.68-.83,.86-2.35-.14-4.99-2.22-6.38-2.57-1.74-6.53-2.84-9.3,3.65,0,0-1.56,6.13,4.54,8.68,3.15,1.32,6.8,.84,9.56-1.16,2.32-1.68,4.65-4.48,4.63-8.97,0-.92-.12-1.83-.31-2.72-.18-.79-.44-1.56-.76-2.31-.79-1.82-2-3.46-3.53-4.78-1.94-1.67-4.71-3.25-8.44-3.6-.84-.09-1.73-.1-2.68-.04-.61,.04-1.22,.11-1.82,.21-4.29,.73-8.21,3.02-11.03,6.4-3.9,4.68-7.7,12.85-2.57,24.52Z"/>
  <path class="cls-25" d="M416.44,122.07l-1.49-.18s-6.65-9.31-2.14-21.24c2.54-6.72,7.89-12.11,14.73-14.28,.04-.02,.09-.04,.13-.05,1.28-.39,2.65-.7,4.1-.86,4.86-.54,10.57,.62,16.32,5.77,0,0,3.62,3.61,4.95,9.14,.04,.15,.07,.3,.11,.46,.58,2.67,.61,5.78-.56,9.11-1.57,4.52-4.86,8.33-9.25,10.22-4.05,1.74-9.86,2.26-16.12-3.55,0,0-7.32-6.29-.72-15.3,1.86-2.55,4.81-4.16,7.97-4.16,.5,0,1,.04,1.51,.12,1.64,.27,3.32,1.03,4.72,2.66h0c.2,.22,.39,.47,.57,.73,1.25,1.78,1.87,3.97,1.48,6.11-.3,1.61-1.18,3.42-3.46,4.48-1.75,.82-3.83,.75-5.39-.37-.53-.38-.99-.87-1.21-1.49,0,0,6.01,3.67,7.68-.83,.86-2.35-.14-4.99-2.22-6.38-2.57-1.74-6.53-2.84-9.3,3.65,0,0-1.56,6.13,4.54,8.68,3.15,1.32,6.8,.84,9.56-1.16,2.32-1.68,4.65-4.48,4.63-8.97,0-.92-.12-1.83-.31-2.72-.18-.79-.44-1.56-.76-2.31-.79-1.82-2-3.46-3.53-4.78-1.94-1.67-4.71-3.25-8.44-3.6-.84-.09-1.73-.1-2.68-.04-.61,.04-1.22,.11-1.82,.21-4.29,.73-8.21,3.02-11.03,6.4-3.9,4.68-7.7,12.85-2.57,24.52Z"/>
  <path class="cls-25" d="M395.29,161l-1.49-.18s-6.65-9.31-2.14-21.24c2.54-6.72,7.89-12.11,14.73-14.28,.04-.02,.09-.04,.13-.05,1.28-.39,2.65-.7,4.1-.86,4.86-.54,10.57,.62,16.32,5.77,0,0,3.62,3.61,4.95,9.14,.04,.15,.07,.3,.11,.46,.58,2.67,.61,5.78-.56,9.11-1.57,4.52-4.86,8.33-9.25,10.22-4.05,1.74-9.86,2.26-16.12-3.55,0,0-7.32-6.29-.72-15.3,1.86-2.55,4.81-4.16,7.97-4.16,.5,0,1,.04,1.51,.12,1.64,.27,3.32,1.03,4.72,2.66h0c.2,.22,.39,.47,.57,.73,1.25,1.78,1.87,3.97,1.48,6.11-.3,1.61-1.18,3.42-3.46,4.48-1.75,.82-3.83,.75-5.39-.37-.53-.38-.99-.87-1.21-1.49,0,0,6.01,3.67,7.68-.83,.86-2.35-.14-4.99-2.22-6.38-2.57-1.74-6.53-2.84-9.3,3.65,0,0-1.56,6.13,4.54,8.68,3.15,1.32,6.8,.84,9.56-1.16,2.32-1.68,4.65-4.48,4.63-8.97,0-.92-.12-1.83-.31-2.72-.18-.79-.44-1.56-.76-2.31-.79-1.82-2-3.46-3.53-4.78-1.94-1.67-4.71-3.25-8.44-3.6-.84-.09-1.73-.1-2.68-.04-.61,.04-1.22,.11-1.82,.21-4.29,.73-8.21,3.02-11.03,6.4-3.9,4.68-7.7,12.85-2.57,24.52Z"/>
  <path class="cls-25" d="M367.44,98.7l-1.49-.18s-6.65-9.31-2.14-21.24c2.54-6.72,7.89-12.11,14.73-14.28,.04-.02,.09-.04,.13-.05,1.28-.39,2.65-.7,4.1-.86,4.86-.54,10.57,.62,16.32,5.77,0,0,3.62,3.61,4.95,9.14,.04,.15,.07,.3,.11,.46,.58,2.67,.61,5.78-.56,9.11-1.57,4.52-4.86,8.33-9.25,10.22-4.05,1.74-9.86,2.26-16.12-3.55,0,0-7.32-6.29-.72-15.3,1.86-2.55,4.81-4.16,7.97-4.16,.5,0,1,.04,1.51,.12,1.64,.27,3.32,1.03,4.72,2.66h0c.2,.22,.39,.47,.57,.73,1.25,1.78,1.87,3.97,1.48,6.11-.3,1.61-1.18,3.42-3.46,4.48-1.75,.82-3.83,.75-5.39-.37-.53-.38-.99-.87-1.21-1.49,0,0,6.01,3.67,7.68-.83,.86-2.35-.14-4.99-2.22-6.38-2.57-1.74-6.53-2.84-9.3,3.65,0,0-1.56,6.13,4.54,8.68,3.15,1.32,6.8,.84,9.56-1.16,2.32-1.68,4.65-4.48,4.63-8.97,0-.92-.12-1.83-.31-2.72-.18-.79-.44-1.56-.76-2.31-.79-1.82-2-3.46-3.53-4.78-1.94-1.67-4.71-3.25-8.44-3.6-.84-.09-1.73-.1-2.68-.04-.61,.04-1.22,.11-1.82,.21-4.29,.73-8.21,3.02-11.03,6.4-3.9,4.68-7.7,12.85-2.57,24.52Z"/>
  <path class="cls-25" d="M400.8,83.14l-1.49-.18s-6.65-9.31-2.14-21.24c2.54-6.72,7.89-12.11,14.73-14.28,.04-.02,.09-.04,.13-.05,1.28-.39,2.65-.7,4.1-.86,4.86-.54,10.57,.62,16.32,5.77,0,0,3.62,3.61,4.95,9.14,.04,.15,.07,.3,.11,.46,.58,2.67,.61,5.78-.56,9.11-1.57,4.52-4.86,8.33-9.25,10.22-4.05,1.74-9.86,2.26-16.12-3.55,0,0-7.32-6.29-.72-15.3,1.86-2.55,4.81-4.16,7.97-4.16,.5,0,1,.04,1.51,.12,1.64,.27,3.32,1.03,4.72,2.66h0c.2,.22,.39,.47,.57,.73,1.25,1.78,1.87,3.97,1.48,6.11-.3,1.61-1.18,3.42-3.46,4.48-1.75,.82-3.83,.75-5.39-.37-.53-.38-.99-.87-1.21-1.49,0,0,6.01,3.67,7.68-.83,.86-2.35-.14-4.99-2.22-6.38-2.57-1.74-6.53-2.84-9.3,3.65,0,0-1.56,6.13,4.54,8.68,3.15,1.32,6.8,.84,9.56-1.16,2.32-1.68,4.65-4.48,4.63-8.97,0-.92-.12-1.83-.31-2.72-.18-.79-.44-1.56-.76-2.31-.79-1.82-2-3.46-3.53-4.78-1.94-1.67-4.71-3.25-8.44-3.6-.84-.09-1.73-.1-2.68-.04-.61,.04-1.22,.11-1.82,.21-4.29,.73-8.21,3.02-11.03,6.4-3.9,4.68-7.7,12.85-2.57,24.52Z"/>
  <path class="cls-25" d="M347.91,58.64l-1.49-.18s-6.65-9.31-2.14-21.24c2.54-6.72,7.89-12.11,14.73-14.28,.04-.02,.09-.04,.13-.05,1.28-.39,2.65-.7,4.1-.86,4.86-.54,10.57,.62,16.32,5.77,0,0,3.62,3.61,4.95,9.14,.04,.15,.07,.3,.11,.46,.58,2.67,.61,5.78-.56,9.11-1.57,4.52-4.86,8.33-9.25,10.22-4.05,1.74-9.86,2.26-16.12-3.55,0,0-7.32-6.29-.72-15.3,1.86-2.55,4.81-4.16,7.97-4.16,.5,0,1,.04,1.51,.12,1.64,.27,3.32,1.03,4.72,2.66h0c.2,.22,.39,.47,.57,.73,1.25,1.78,1.87,3.97,1.48,6.11-.3,1.61-1.18,3.42-3.46,4.48-1.75,.82-3.83,.75-5.39-.37-.53-.38-.99-.87-1.21-1.49,0,0,6.01,3.67,7.68-.83,.86-2.35-.14-4.99-2.22-6.38-2.57-1.74-6.53-2.84-9.3,3.65,0,0-1.56,6.13,4.54,8.68,3.15,1.32,6.8,.84,9.56-1.16,2.32-1.68,4.65-4.48,4.63-8.97,0-.92-.12-1.83-.31-2.72-.18-.79-.44-1.56-.76-2.31-.79-1.82-2-3.46-3.53-4.78-1.94-1.67-4.71-3.25-8.44-3.6-.84-.09-1.73-.1-2.68-.04-.61,.04-1.22,.11-1.82,.21-4.29,.73-8.21,3.02-11.03,6.4-3.9,4.68-7.7,12.85-2.57,24.52Z"/>
  <path class="cls-25" d="M299.42,60.95l-1.49-.18s-6.65-9.31-2.14-21.24c2.54-6.72,7.89-12.11,14.73-14.28,.04-.02,.09-.04,.13-.05,1.28-.39,2.65-.7,4.1-.86,4.86-.54,10.57,.62,16.32,5.77,0,0,3.62,3.61,4.95,9.14,.04,.15,.07,.3,.11,.46,.58,2.67,.61,5.78-.56,9.11-1.57,4.52-4.86,8.33-9.25,10.22-4.05,1.74-9.86,2.26-16.12-3.55,0,0-7.32-6.29-.72-15.3,1.86-2.55,4.81-4.16,7.97-4.16,.5,0,1,.04,1.51,.12,1.64,.27,3.32,1.03,4.72,2.66h0c.2,.22,.39,.47,.57,.73,1.25,1.78,1.87,3.97,1.48,6.11-.3,1.61-1.18,3.42-3.46,4.48-1.75,.82-3.83,.75-5.39-.37-.53-.38-.99-.87-1.21-1.49,0,0,6.01,3.67,7.68-.83,.86-2.35-.14-4.99-2.22-6.38-2.57-1.74-6.53-2.84-9.3,3.65,0,0-1.56,6.13,4.54,8.68,3.15,1.32,6.8,.84,9.56-1.16,2.32-1.68,4.65-4.48,4.63-8.97,0-.92-.12-1.83-.31-2.72-.18-.79-.44-1.56-.76-2.31-.79-1.82-2-3.46-3.53-4.78-1.94-1.67-4.71-3.25-8.44-3.6-.84-.09-1.73-.1-2.68-.04-.61,.04-1.22,.11-1.82,.21-4.29,.73-8.21,3.02-11.03,6.4-3.9,4.68-7.7,12.85-2.57,24.52Z"/>
  <path class="cls-25" d="M332.68,92.73l-1.49-.18s-6.65-9.31-2.14-21.24c2.54-6.72,7.89-12.11,14.73-14.28,.04-.02,.09-.04,.13-.05,1.28-.39,2.65-.7,4.1-.86,4.86-.54,10.57,.62,16.32,5.77,0,0,3.62,3.61,4.95,9.14,.04,.15,.07,.3,.11,.46,.58,2.67,.61,5.78-.56,9.11-1.57,4.52-4.86,8.33-9.25,10.22-4.05,1.74-9.86,2.26-16.12-3.55,0,0-7.32-6.29-.72-15.3,1.86-2.55,4.81-4.16,7.97-4.16,.5,0,1,.04,1.51,.12,1.64,.27,3.32,1.03,4.72,2.66h0c.2,.22,.39,.47,.57,.73,1.25,1.78,1.87,3.97,1.48,6.11-.3,1.61-1.18,3.42-3.46,4.48-1.75,.82-3.83,.75-5.39-.37-.53-.38-.99-.87-1.21-1.49,0,0,6.01,3.67,7.68-.83,.86-2.35-.14-4.99-2.22-6.38-2.57-1.74-6.53-2.84-9.3,3.65,0,0-1.56,6.13,4.54,8.68,3.15,1.32,6.8,.84,9.56-1.16,2.32-1.68,4.65-4.48,4.63-8.97,0-.92-.12-1.83-.31-2.72-.18-.79-.44-1.56-.76-2.31-.79-1.82-2-3.46-3.53-4.78-1.94-1.67-4.71-3.25-8.44-3.6-.84-.09-1.73-.1-2.68-.04-.61,.04-1.22,.11-1.82,.21-4.29,.73-8.21,3.02-11.03,6.4-3.9,4.68-7.7,12.85-2.57,24.52Z"/>
  <path class="cls-25" d="M281.54,92.73l-1.49-.18s-6.65-9.31-2.14-21.24c2.54-6.72,7.89-12.11,14.73-14.28,.04-.02,.09-.04,.13-.05,1.28-.39,2.65-.7,4.1-.86,4.86-.54,10.57,.62,16.32,5.77,0,0,3.62,3.61,4.95,9.14,.04,.15,.07,.3,.11,.46,.58,2.67,.61,5.78-.56,9.11-1.57,4.52-4.86,8.33-9.25,10.22-4.05,1.74-9.86,2.26-16.12-3.55,0,0-7.32-6.29-.72-15.3,1.86-2.55,4.81-4.16,7.97-4.16,.5,0,1,.04,1.51,.12,1.64,.27,3.32,1.03,4.72,2.66h0c.2,.22,.39,.47,.57,.73,1.25,1.78,1.87,3.97,1.48,6.11-.3,1.61-1.18,3.42-3.46,4.48-1.75,.82-3.83,.75-5.39-.37-.53-.38-.99-.87-1.21-1.49,0,0,6.01,3.67,7.68-.83,.86-2.35-.14-4.99-2.22-6.38-2.57-1.74-6.53-2.84-9.3,3.65,0,0-1.56,6.13,4.54,8.68,3.15,1.32,6.8,.84,9.56-1.16,2.32-1.68,4.65-4.48,4.63-8.97,0-.92-.12-1.83-.31-2.72-.18-.79-.44-1.56-.76-2.31-.79-1.82-2-3.46-3.53-4.78-1.94-1.67-4.71-3.25-8.44-3.6-.84-.09-1.73-.1-2.68-.04-.61,.04-1.22,.11-1.82,.21-4.29,.73-8.21,3.02-11.03,6.4-3.9,4.68-7.7,12.85-2.57,24.52Z"/>
  <path class="cls-25" d="M243.31,80.34l-1.49-.18s-6.65-9.31-2.14-21.24c2.54-6.72,7.89-12.11,14.73-14.28,.04-.02,.09-.04,.13-.05,1.28-.39,2.65-.7,4.1-.86,4.86-.54,10.57,.62,16.32,5.77,0,0,3.62,3.61,4.95,9.14,.04,.15,.07,.3,.11,.46,.58,2.67,.61,5.78-.56,9.11-1.57,4.52-4.86,8.33-9.25,10.22-4.05,1.74-9.86,2.26-16.12-3.55,0,0-7.32-6.29-.72-15.3,1.86-2.55,4.81-4.16,7.97-4.16,.5,0,1,.04,1.51,.12,1.64,.27,3.32,1.03,4.72,2.66h0c.2,.22,.39,.47,.57,.73,1.25,1.78,1.87,3.97,1.48,6.11-.3,1.61-1.18,3.42-3.46,4.48-1.75,.82-3.83,.75-5.39-.37-.53-.38-.99-.87-1.21-1.49,0,0,6.01,3.67,7.68-.83,.86-2.35-.14-4.99-2.22-6.38-2.57-1.74-6.53-2.84-9.3,3.65,0,0-1.56,6.13,4.54,8.68,3.15,1.32,6.8,.84,9.56-1.16,2.32-1.68,4.65-4.48,4.63-8.97,0-.92-.12-1.83-.31-2.72-.18-.79-.44-1.56-.76-2.31-.79-1.82-2-3.46-3.53-4.78-1.94-1.67-4.71-3.25-8.44-3.6-.84-.09-1.73-.1-2.68-.04-.61,.04-1.22,.11-1.82,.21-4.29,.73-8.21,3.02-11.03,6.4-3.9,4.68-7.7,12.85-2.57,24.52Z"/>
  <path class="cls-25" d="M359.34,216.18l-1.36,.72s-11.04-3.95-14.22-16.64c-1.79-7.14-.43-14.81,4.06-20.63,.02-.04,.05-.08,.08-.12,.85-1.08,1.82-2.14,2.95-3.12,3.77-3.3,9.26-5.66,17.11-4.68,0,0,5.16,.92,9.51,4.8,.12,.1,.24,.21,.36,.32,2.05,1.91,3.89,4.51,4.86,8,1.32,4.72,.78,9.85-1.82,14.01-2.39,3.83-6.98,7.67-15.65,6.44,0,0-9.84-1.02-9.55-12.46,.08-3.24,1.62-6.32,4.28-8.16,.42-.29,.86-.55,1.35-.78,1.54-.73,3.4-1.07,5.54-.52h0c.3,.07,.6,.17,.9,.28,2.09,.77,3.89,2.25,4.82,4.28,.69,1.53,1.01,3.57-.29,5.79-1,1.71-2.79,2.87-4.76,2.84-.67,0-1.34-.15-1.89-.55,0,0,7.21-.42,5.98-5.19-.65-2.48-3.03-4.12-5.6-4.08-3.18,.04-7.16,1.43-5.7,8.51,0,0,2.27,6.07,8.9,4.66,3.42-.73,6.22-3.26,7.37-6.56,.97-2.77,1.3-6.49-1.35-10.26-.55-.77-1.17-1.47-1.86-2.11-.61-.56-1.28-1.06-1.99-1.5-1.73-1.07-3.71-1.75-5.77-1.96-2.61-.28-5.87,.02-9.21,1.91-.76,.42-1.52,.93-2.28,1.53-.49,.39-.96,.8-1.41,1.24-3.19,3.12-5.15,7.35-5.54,11.84-.55,6.22,1.03,15.32,12.17,22.16Z"/>
  <path class="cls-25" d="M337.5,138.53l-1.43,.56s-10.49-5.25-12.13-18.22c-.93-7.3,1.34-14.75,6.49-20,.02-.04,.06-.07,.1-.11,.97-.97,2.07-1.91,3.3-2.74,4.14-2.82,9.87-4.51,17.55-2.6,0,0,5.01,1.53,8.87,5.9,.1,.12,.21,.23,.32,.36,1.81,2.14,3.32,4.94,3.87,8.52,.74,4.85-.41,9.88-3.48,13.69-2.83,3.52-7.85,6.78-16.31,4.52,0,0-9.65-2.18-7.99-13.51,.47-3.2,2.36-6.08,5.23-7.59,.45-.23,.92-.45,1.43-.61,1.62-.54,3.51-.66,5.56,.15h0c.29,.1,.58,.24,.86,.38,1.98,1.02,3.6,2.7,4.27,4.82,.5,1.6,.57,3.67-.98,5.71-1.19,1.58-3.11,2.52-5.06,2.25-.67-.09-1.32-.31-1.81-.77,0,0,7.2,.45,6.55-4.44-.34-2.54-2.52-4.46-5.07-4.72-3.16-.34-7.28,.56-6.68,7.76,0,0,1.53,6.3,8.28,5.69,3.48-.31,6.57-2.5,8.11-5.63,1.3-2.64,2.06-6.29-.11-10.35-.45-.83-.99-1.6-1.59-2.32-.54-.63-1.15-1.2-1.79-1.72-1.59-1.27-3.47-2.18-5.5-2.64-2.56-.59-5.83-.68-9.37,.79-.8,.32-1.62,.74-2.45,1.25-.54,.33-1.05,.68-1.54,1.06-3.54,2.72-5.99,6.68-6.92,11.09-1.29,6.11-.81,15.33,9.43,23.45Z"/>
  <path class="cls-25" d="M376.05,145.96l-1.43,.56s-10.49-5.25-12.13-18.22c-.93-7.3,1.34-14.75,6.49-20,.02-.04,.06-.07,.1-.11,.97-.97,2.07-1.91,3.3-2.74,4.14-2.82,9.87-4.51,17.55-2.6,0,0,5.01,1.53,8.87,5.9,.1,.12,.21,.23,.32,.36,1.81,2.14,3.32,4.94,3.87,8.52,.74,4.85-.41,9.88-3.48,13.69-2.83,3.52-7.85,6.78-16.31,4.52,0,0-9.65-2.18-7.99-13.51,.47-3.2,2.36-6.08,5.23-7.59,.45-.23,.92-.45,1.43-.61,1.62-.54,3.51-.66,5.56,.15h0c.29,.1,.58,.24,.86,.38,1.98,1.02,3.6,2.7,4.27,4.82,.5,1.6,.57,3.67-.98,5.71-1.19,1.58-3.11,2.52-5.06,2.25-.67-.09-1.32-.31-1.81-.77,0,0,7.2,.45,6.55-4.44-.34-2.54-2.52-4.46-5.07-4.72-3.16-.34-7.28,.56-6.68,7.76,0,0,1.53,6.3,8.28,5.69,3.48-.31,6.57-2.5,8.11-5.63,1.3-2.64,2.06-6.29-.11-10.35-.45-.83-.99-1.6-1.59-2.32-.54-.63-1.15-1.2-1.79-1.72-1.59-1.27-3.47-2.18-5.5-2.64-2.56-.59-5.83-.68-9.37,.79-.8,.32-1.62,.74-2.45,1.25-.54,.33-1.05,.68-1.54,1.06-3.54,2.72-5.99,6.68-6.92,11.09-1.29,6.11-.81,15.33,9.43,23.45Z"/>
  <path class="cls-25" d="M377.82,192.83l-1.36,.72s-11.04-3.95-14.22-16.64c-1.79-7.14-.43-14.81,4.06-20.63,.02-.04,.05-.08,.08-.12,.85-1.08,1.82-2.14,2.95-3.12,3.77-3.3,9.26-5.66,17.11-4.68,0,0,5.16,.92,9.51,4.8,.12,.1,.24,.21,.36,.32,2.05,1.91,3.89,4.51,4.86,8,1.32,4.72,.78,9.85-1.82,14.01-2.39,3.83-6.98,7.67-15.65,6.44,0,0-9.84-1.02-9.55-12.46,.08-3.24,1.62-6.32,4.28-8.16,.42-.29,.86-.55,1.35-.78,1.54-.73,3.4-1.07,5.54-.52h0c.3,.07,.6,.17,.9,.28,2.09,.77,3.89,2.25,4.82,4.28,.69,1.53,1.01,3.57-.29,5.79-1,1.71-2.79,2.87-4.76,2.84-.67,0-1.34-.15-1.89-.55,0,0,7.21-.42,5.98-5.19-.65-2.48-3.03-4.12-5.6-4.08-3.18,.04-7.16,1.43-5.7,8.51,0,0,2.27,6.07,8.9,4.66,3.42-.73,6.22-3.26,7.37-6.56,.97-2.77,1.3-6.49-1.35-10.26-.55-.77-1.17-1.47-1.86-2.11-.61-.56-1.28-1.06-1.99-1.5-1.73-1.07-3.71-1.75-5.77-1.96-2.61-.28-5.87,.02-9.21,1.91-.76,.42-1.52,.93-2.28,1.53-.49,.39-.96,.8-1.41,1.24-3.19,3.12-5.15,7.35-5.54,11.84-.55,6.22,1.03,15.32,12.17,22.16Z"/>
  <path class="cls-25" d="M407.39,209.55l-1.36,.72s-11.04-3.95-14.22-16.64c-1.79-7.14-.43-14.81,4.06-20.63,.02-.04,.05-.08,.08-.12,.85-1.08,1.82-2.14,2.95-3.12,3.77-3.3,9.26-5.66,17.11-4.68,0,0,5.16,.92,9.51,4.8,.12,.1,.24,.21,.36,.32,2.05,1.91,3.89,4.51,4.86,8,1.32,4.72,.78,9.85-1.82,14.01-2.39,3.83-6.98,7.67-15.65,6.44,0,0-9.84-1.02-9.55-12.46,.08-3.24,1.62-6.32,4.28-8.16,.42-.29,.86-.55,1.35-.78,1.54-.73,3.4-1.07,5.54-.52h0c.3,.07,.6,.17,.9,.28,2.09,.77,3.89,2.25,4.82,4.28,.69,1.53,1.01,3.57-.29,5.79-1,1.71-2.79,2.87-4.76,2.84-.67,0-1.34-.15-1.89-.55,0,0,7.21-.42,5.98-5.19-.65-2.48-3.03-4.12-5.6-4.08-3.18,.04-7.16,1.43-5.7,8.51,0,0,2.27,6.07,8.9,4.66,3.42-.73,6.22-3.26,7.37-6.56,.97-2.77,1.3-6.49-1.35-10.26-.55-.77-1.17-1.47-1.86-2.11-.61-.56-1.28-1.06-1.99-1.5-1.73-1.07-3.71-1.75-5.77-1.96-2.61-.28-5.87,.02-9.21,1.91-.76,.42-1.52,.93-2.28,1.53-.49,.39-.96,.8-1.41,1.24-3.19,3.12-5.15,7.35-5.54,11.84-.55,6.22,1.03,15.32,12.17,22.16Z"/>
  <path class="cls-25" d="M421.95,168.82l-.35-1.5s6.68-9.64,19.76-9.42c7.36,.12,14.41,3.43,18.87,9.27,.04,.03,.06,.07,.09,.11,.82,1.1,1.59,2.32,2.24,3.66,2.2,4.5,3.06,10.42,.08,17.74,0,0-2.23,4.74-7.11,7.94-.13,.09-.26,.17-.4,.26-2.38,1.49-5.37,2.58-8.99,2.62-4.9,.05-9.72-1.81-13.06-5.39-3.08-3.3-5.59-8.73-2.15-16.79,0,0,3.53-9.24,14.51-5.98,3.1,.92,5.68,3.2,6.77,6.25,.17,.48,.31,.98,.4,1.5,.3,1.68,.15,3.57-.94,5.48h0c-.15,.28-.32,.55-.51,.81-1.29,1.82-3.19,3.18-5.38,3.54-1.66,.27-3.71,.05-5.52-1.79-1.39-1.41-2.05-3.44-1.51-5.33,.18-.65,.49-1.26,1.02-1.68,0,0-1.47,7.07,3.46,7.12,2.57,.02,4.77-1.86,5.39-4.35,.79-3.08,.48-7.28-6.74-7.71,0,0-6.45,.61-6.81,7.39-.18,3.49,1.54,6.86,4.42,8.83,2.43,1.66,5.93,2.94,10.26,1.36,.89-.33,1.73-.75,2.52-1.24,.7-.45,1.36-.97,1.96-1.53,1.48-1.39,2.65-3.13,3.39-5.07,.95-2.45,1.51-5.67,.55-9.39-.2-.84-.5-1.71-.89-2.6-.25-.58-.53-1.14-.83-1.68-2.18-3.89-5.76-6.88-9.99-8.43-5.86-2.14-15.06-2.98-24.56,6Z"/>
  <path class="cls-25" d="M464.13,179.89l-.29-1.24s5.53-7.98,16.36-7.79c6.09,.1,11.93,2.84,15.62,7.68,.03,.02,.05,.06,.08,.09,.68,.91,1.32,1.92,1.86,3.03,1.82,3.72,2.53,8.62,.06,14.69,0,0-1.85,3.92-5.88,6.57-.11,.07-.22,.14-.33,.22-1.97,1.23-4.44,2.14-7.44,2.17-4.06,.04-8.04-1.5-10.81-4.46-2.55-2.74-4.63-7.23-1.78-13.9,0,0,2.93-7.65,12.01-4.95,2.57,.76,4.7,2.65,5.6,5.17,.14,.4,.26,.81,.33,1.24,.25,1.39,.13,2.95-.77,4.54h0c-.12,.23-.26,.45-.42,.67-1.07,1.51-2.64,2.63-4.45,2.93-1.37,.22-3.07,.04-4.57-1.48-1.15-1.17-1.7-2.85-1.25-4.41,.15-.54,.41-1.04,.84-1.39,0,0-1.21,5.85,2.86,5.89,2.12,.02,3.95-1.54,4.46-3.6,.65-2.55,.4-6.03-5.58-6.39,0,0-5.34,.51-5.64,6.11-.15,2.89,1.27,5.67,3.66,7.31,2.01,1.37,4.91,2.43,8.49,1.13,.74-.27,1.43-.62,2.09-1.03,.58-.37,1.12-.8,1.62-1.27,1.23-1.15,2.19-2.59,2.81-4.19,.78-2.03,1.25-4.69,.46-7.77-.17-.7-.41-1.41-.73-2.15-.2-.48-.44-.94-.69-1.39-1.81-3.22-4.77-5.7-8.27-6.98-4.85-1.77-12.47-2.47-20.33,4.96Z"/>
  <path class="cls-25" d="M178.16,223.55s-4.83-5.36-7.79-1.42c-1.54,2.05-1.33,4.94,.31,6.92,2.02,2.46,5.59,4.69,10.21-.87,0,0,3.32-5.57-1.93-9.86-2.71-2.21-6.44-2.81-9.74-1.65-2.77,.97-5.87,3.05-7.16,7.46-1.08,3.71-.43,7.74,1.66,10.99,1.74,2.7,4.75,5.64,9.86,6.82,4.99,1.15,10.28,.1,14.55-2.74,5.2-3.46,11.32-10.37,9.7-23.35l1.42,.61s3.81,11.09-4.1,21.5c-4.48,5.9-11.38,9.64-18.79,9.74-5.96,.07-13.26-2.04-18.62-10.8,0,0-5.64-10.4,1.04-19.69,2.86-3.98,7.2-6.77,12.07-7.34,4.48-.52,10.35,.66,14.81,8.2,0,0,5.35,8.31-3.77,15.24-2.57,1.96-5.95,2.68-9.04,1.75-2.26-.68-4.58-2.2-5.67-5.44-.71-2.11-.68-4.44,.33-6.43,.76-1.5,2.16-3.02,4.71-3.39,1.95-.29,3.98,.38,5.19,1.94,.41,.53,.72,1.14,.76,1.81Z"/>
  <path class="cls-25" d="M200.96,183.99c-.11,1.46-.33,2.82-.64,4.08-1.72,7.2-6.23,11.38-10.17,13.74-4.39,2.63-9.72,3.43-14.66,2.05-5.06-1.42-7.92-4.49-9.53-7.27-1.93-3.34-2.4-7.4-1.14-11.06,1.49-4.35,4.7-6.28,7.5-7.12,.16-.05,.3-.08,.46-.12,1.82-.46,3.73-.41,5.49,.15,1.35,.41,2.62,1.11,3.7,2.08,5.04,4.54,1.46,9.94,1.46,9.94-4.88,5.33-8.34,2.93-10.25,.39-1.54-2.05-1.61-4.95,.02-6.93,3.14-3.79,7.72,1.79,7.72,1.79,0-.67-.29-1.3-.66-1.84-1.13-1.62-3.13-2.38-5.09-2.19-2.57,.26-4.03,1.7-4.86,3.17-1.1,1.94-1.24,4.26-.64,6.41,.93,3.29,3.18,4.92,5.4,5.71,3.05,1.08,6.45,.51,9.12-1.33,9.44-6.49,4.48-15.05,4.48-15.05-.89-1.69-1.86-3.07-2.89-4.2-1.43-1.59-2.96-2.7-4.5-3.43-2.42-1.14-4.86-1.4-7.02-1.25-.98,.07-1.93,.23-2.87,.47-2.37,.6-4.58,1.73-6.49,3.25-1.11,.88-2.14,1.91-3.04,3.04-7.12,8.98-1.97,19.62-1.97,19.62,4.94,9.01,12.14,11.45,18.09,11.67,7.4,.26,14.47-3.16,19.23-8.84,3.43-4.1,4.92-8.41,5.46-12.06,.21-1.4,.29-2.72,.29-3.88l-2-.98Z"/>
  <path class="cls-25" d="M191.19,170.81c.11,.62,.26,1.22,.43,1.82-1.4,1.21-2.93,2.26-4.56,3.12-3.58,1.91-7.62,2.92-11.77,2.77-5.96-.2-13.15-2.66-18.09-11.66,0,0-5.15-10.65,1.97-19.62,3.05-3.85,7.51-6.43,12.4-6.77,4.5-.31,10.3,1.15,14.4,8.89,0,0,4.96,8.55-4.48,15.05-2.66,1.84-6.07,2.4-9.12,1.33-2.23-.79-4.47-2.41-5.4-5.71-.61-2.14-.47-4.47,.64-6.4,.83-1.46,2.29-2.92,4.86-3.17,1.96-.19,3.96,.56,5.09,2.18,.38,.54,.65,1.17,.66,1.85,0,0-4.58-5.59-7.72-1.79-1.63,1.98-1.56,4.87-.02,6.92,1.91,2.55,5.37,4.95,10.24-.39,0,0,3.58-5.4-1.45-9.94-2.61-2.34-6.3-3.11-9.65-2.11-2.81,.84-6.01,2.76-7.5,7.12-1.26,3.65-.79,7.71,1.14,11.05,1.61,2.78,4.47,5.87,9.53,7.27,4.27,1.2,8.84,.76,12.84-1.09,.63-.29,1.23-.61,1.82-.97,1.13-.68,2.31-1.51,3.45-2.51,0,.87,.1,1.78,.28,2.73Z"/>
  <path class="cls-25" d="M197.17,165.85c.08-1.7,.65-3.51,2.15-5.13-.48,1.66-1.17,3.39-2.15,5.13Z"/>
  <path class="cls-25" d="M198.01,154.88c.32-2.03,.42-4.28,.26-6.76,0-.13-.02-.27-.03-.4l.48,.23,.91,.44s.64,2.15,.64,5.43c-.78,.28-1.54,.64-2.26,1.05Z"/>
</svg>